G04 MADE WITH FRITZING*
G04 WWW.FRITZING.ORG*
G04 DOUBLE SIDED*
G04 HOLES PLATED*
G04 CONTOUR ON CENTER OF CONTOUR VECTOR*
%ASAXBY*%
%FSLAX23Y23*%
%MOIN*%
%OFA0B0*%
%SFA1.0B1.0*%
%ADD10C,0.084000*%
%ADD11C,0.049370*%
%ADD12C,0.082472*%
%ADD13C,0.082445*%
%ADD14C,0.082417*%
%ADD15C,0.187165*%
%ADD16C,0.088000*%
%ADD17C,0.085000*%
%ADD18C,0.082917*%
%ADD19C,0.092000*%
%ADD20C,0.061496*%
%ADD21C,0.109055*%
%ADD22R,0.084000X0.084000*%
%ADD23R,0.065118X0.069055*%
%ADD24R,0.285591X0.285591*%
%ADD25R,0.069055X0.116299*%
%ADD26R,0.057244X0.088740*%
%ADD27R,0.069055X0.065118*%
%ADD28R,0.096614X0.033622*%
%ADD29R,0.100086X0.123708*%
%ADD30R,0.036000X0.090000*%
%ADD31R,0.096900X0.034000*%
%ADD32R,0.057244X0.053307*%
%ADD33R,0.088740X0.057244*%
%ADD34R,0.090000X0.036000*%
%ADD35R,0.085000X0.085000*%
%ADD36R,0.092000X0.092000*%
%ADD37R,0.109055X0.109055*%
%ADD38R,0.001000X0.001000*%
%LNMASK1*%
G90*
G70*
G54D10*
X1319Y482D03*
X1419Y482D03*
X1519Y482D03*
X1619Y482D03*
X1319Y382D03*
X1419Y382D03*
X1519Y382D03*
X1619Y382D03*
G54D11*
X144Y1832D03*
X3332Y832D03*
X2882Y3695D03*
X1282Y1557D03*
X532Y1607D03*
X2457Y257D03*
X2432Y558D03*
X1732Y1507D03*
X232Y2770D03*
X1907Y3645D03*
X3094Y3345D03*
X2607Y3157D03*
X919Y2982D03*
X2244Y732D03*
X2057Y770D03*
X1194Y170D03*
X1844Y408D03*
X2782Y332D03*
X2807Y632D03*
X3519Y1295D03*
X3282Y1445D03*
X1419Y3582D03*
X1332Y1970D03*
X2094Y1832D03*
X1757Y2132D03*
X1082Y995D03*
G54D12*
X2844Y2482D03*
X3544Y2982D03*
X3444Y2982D03*
X3344Y2982D03*
X3244Y2982D03*
X3144Y2982D03*
G54D13*
X3044Y2982D03*
G54D12*
X2844Y2982D03*
G54D13*
X3544Y2482D03*
G54D14*
X3444Y2482D03*
G54D13*
X3344Y2482D03*
G54D12*
X3244Y2482D03*
G54D13*
X3144Y2482D03*
G54D14*
X3044Y2482D03*
G54D11*
X2707Y557D03*
X2019Y1520D03*
X2232Y3170D03*
X2070Y407D03*
X2569Y3345D03*
X2382Y3345D03*
X607Y1907D03*
G54D10*
X607Y2794D03*
X607Y2694D03*
X607Y2594D03*
X607Y2494D03*
X607Y2394D03*
X607Y2294D03*
G54D11*
X844Y345D03*
X94Y3182D03*
X1144Y732D03*
X2394Y357D03*
X2182Y357D03*
X2119Y357D03*
X2044Y282D03*
X2620Y257D03*
X2619Y357D03*
X2619Y457D03*
X2181Y905D03*
X3469Y1257D03*
X894Y2820D03*
X3344Y2332D03*
X3282Y1595D03*
X2319Y1557D03*
X2619Y1407D03*
X1794Y870D03*
X1132Y1232D03*
X2219Y1307D03*
X2069Y1557D03*
X2319Y1307D03*
X2369Y1557D03*
X1732Y1332D03*
X3732Y1170D03*
X1532Y782D03*
G54D10*
X1707Y3695D03*
X1707Y3595D03*
X1707Y3495D03*
X1707Y3395D03*
X1707Y3295D03*
X1707Y3195D03*
X1707Y3695D03*
X1707Y3595D03*
X1707Y3495D03*
X1707Y3395D03*
X1707Y3295D03*
X1707Y3195D03*
G54D11*
X3057Y757D03*
G54D15*
X132Y2095D03*
X132Y2995D03*
G54D11*
X1607Y2395D03*
X1944Y2457D03*
X1269Y2332D03*
X1182Y3495D03*
X3332Y1107D03*
X1882Y1170D03*
X507Y1032D03*
X2782Y1170D03*
X3194Y2620D03*
X2969Y1982D03*
X3332Y2007D03*
G54D16*
X594Y332D03*
X494Y332D03*
X394Y332D03*
X294Y332D03*
X194Y332D03*
X594Y932D03*
X494Y932D03*
X394Y932D03*
X294Y932D03*
X194Y932D03*
X194Y732D03*
X294Y732D03*
X394Y732D03*
X494Y732D03*
X494Y432D03*
X494Y532D03*
X194Y432D03*
X194Y532D03*
X294Y432D03*
X294Y532D03*
X394Y432D03*
X394Y532D03*
X594Y432D03*
X594Y532D03*
X194Y832D03*
X294Y832D03*
X394Y832D03*
X494Y832D03*
X494Y632D03*
X594Y632D03*
X1382Y1320D03*
X1282Y1320D03*
X194Y632D03*
X294Y632D03*
X394Y632D03*
X594Y832D03*
X594Y732D03*
G54D11*
X2894Y2557D03*
G54D17*
X3132Y682D03*
X3132Y982D03*
X3232Y682D03*
X3232Y982D03*
X3332Y682D03*
X3332Y982D03*
X3432Y682D03*
X3432Y982D03*
G54D10*
X894Y2370D03*
X894Y2270D03*
X894Y2170D03*
X894Y2070D03*
X894Y1970D03*
X894Y1870D03*
X894Y1770D03*
X894Y1670D03*
X894Y1570D03*
X894Y1470D03*
X894Y1370D03*
X894Y1270D03*
X894Y1170D03*
X894Y1070D03*
X894Y970D03*
X894Y870D03*
X894Y770D03*
X894Y670D03*
X894Y570D03*
X894Y470D03*
X794Y2370D03*
X794Y2270D03*
X794Y2170D03*
X794Y2070D03*
X794Y1970D03*
X794Y1870D03*
X794Y1770D03*
X794Y1670D03*
X794Y1570D03*
X794Y1470D03*
X794Y1370D03*
X794Y1270D03*
X794Y1170D03*
X794Y1070D03*
X794Y970D03*
X794Y870D03*
X794Y770D03*
X794Y670D03*
X794Y570D03*
X794Y470D03*
G54D18*
X2982Y1170D03*
X1382Y1170D03*
X3082Y1170D03*
X3182Y1170D03*
X3282Y1170D03*
X3382Y1170D03*
X3682Y2570D03*
X3482Y1170D03*
X3582Y1170D03*
X1422Y3070D03*
X1982Y1170D03*
X2082Y1170D03*
X2182Y1170D03*
X2282Y1170D03*
X3682Y1770D03*
X2382Y1170D03*
X2482Y1170D03*
X2582Y1170D03*
X2682Y1170D03*
X2182Y3070D03*
X3682Y2970D03*
X3682Y2170D03*
X3682Y1370D03*
X1022Y3070D03*
X1782Y1170D03*
X1782Y3070D03*
X3682Y2770D03*
X3682Y2370D03*
X3682Y1970D03*
X3382Y3070D03*
X3682Y1570D03*
X3282Y3070D03*
X3182Y3070D03*
X3082Y3070D03*
X2982Y3070D03*
X2882Y3070D03*
X2782Y3070D03*
X2682Y3070D03*
X822Y3070D03*
X1222Y3070D03*
X1622Y3070D03*
X1182Y1170D03*
X1582Y1170D03*
X2382Y3070D03*
X1982Y3070D03*
X3682Y3070D03*
X3682Y2870D03*
X3682Y2670D03*
X3682Y2470D03*
X3682Y2270D03*
X3682Y2070D03*
X3682Y1870D03*
X3682Y1670D03*
X3682Y1470D03*
X722Y3070D03*
X922Y3070D03*
X1122Y3070D03*
X1322Y3070D03*
X1522Y3070D03*
X1082Y1170D03*
X1282Y1170D03*
X1482Y1170D03*
X1682Y1170D03*
X2482Y3070D03*
X2282Y3070D03*
X2082Y3070D03*
X1882Y3070D03*
X3782Y3070D03*
X3782Y2970D03*
X3782Y2870D03*
X3782Y2770D03*
X3782Y2670D03*
X3782Y2570D03*
X3782Y2470D03*
X3782Y2370D03*
X3782Y2270D03*
X3782Y2170D03*
X3782Y2070D03*
X3782Y1970D03*
X3782Y1870D03*
X3782Y1770D03*
X3782Y1670D03*
X3782Y1570D03*
X3782Y1470D03*
X3782Y1370D03*
X2882Y1170D03*
G54D19*
X1419Y2882D03*
X1419Y2782D03*
X1419Y2682D03*
X2094Y2882D03*
X2094Y2782D03*
X2094Y2682D03*
X1757Y2882D03*
X1757Y2782D03*
X1757Y2682D03*
X1082Y2882D03*
X1082Y2782D03*
X1082Y2682D03*
G54D16*
X3632Y432D03*
X3632Y532D03*
X3632Y632D03*
X3632Y957D03*
X3632Y857D03*
X3632Y757D03*
X2057Y3245D03*
X1957Y3245D03*
X2719Y2832D03*
X2719Y2732D03*
X2719Y2632D03*
X3119Y432D03*
X3219Y432D03*
X3469Y432D03*
X3369Y432D03*
G54D19*
X2417Y3620D03*
X2119Y3620D03*
G54D20*
X3494Y3307D03*
X3494Y3603D03*
X3494Y3307D03*
X3494Y3603D03*
G54D19*
X369Y3377D03*
X269Y3377D03*
X169Y3377D03*
X1069Y3664D03*
X969Y3664D03*
X869Y3664D03*
X369Y3664D03*
X269Y3664D03*
X169Y3664D03*
X1069Y3377D03*
X969Y3377D03*
X869Y3377D03*
G54D21*
X3757Y3557D03*
X3757Y3357D03*
G54D22*
X1319Y382D03*
G54D23*
X1207Y1457D03*
X1288Y1457D03*
G54D24*
X2882Y3345D03*
G54D25*
X2783Y3618D03*
X2980Y3618D03*
G54D26*
X2657Y3620D03*
X2657Y3510D03*
G54D27*
X2232Y3270D03*
X2232Y3351D03*
G54D23*
X2301Y3170D03*
X2382Y3170D03*
G54D28*
X432Y2595D03*
X69Y2595D03*
X432Y2545D03*
X432Y2645D03*
X432Y2695D03*
X69Y2545D03*
X69Y2645D03*
X69Y2695D03*
G54D29*
X3207Y3257D03*
X3376Y3257D03*
X1882Y3395D03*
X2051Y3395D03*
G54D22*
X607Y2794D03*
G54D30*
X2019Y1390D03*
X2069Y1390D03*
X2119Y1390D03*
X2169Y1390D03*
X2219Y1390D03*
X2269Y1390D03*
X2319Y1390D03*
X2369Y1390D03*
X2369Y1632D03*
X2319Y1632D03*
X2269Y1632D03*
X2219Y1632D03*
X2169Y1632D03*
X2119Y1632D03*
X2069Y1632D03*
X2019Y1632D03*
G54D31*
X3269Y2132D03*
X3269Y2182D03*
X3269Y2232D03*
X3269Y2282D03*
X3004Y2282D03*
X3004Y2232D03*
X3004Y2182D03*
X3004Y2132D03*
X3269Y1745D03*
X3269Y1795D03*
X3269Y1845D03*
X3269Y1895D03*
X3004Y1895D03*
X3004Y1845D03*
X3004Y1795D03*
X3004Y1745D03*
G54D32*
X2569Y1795D03*
X2636Y1795D03*
X2569Y1895D03*
X2636Y1895D03*
X2569Y2082D03*
X2636Y2082D03*
X2569Y2182D03*
X2636Y2182D03*
X2419Y1795D03*
X2486Y1795D03*
X2419Y1895D03*
X2486Y1895D03*
X2419Y2082D03*
X2486Y2082D03*
X2419Y2182D03*
X2486Y2182D03*
G54D33*
X3207Y3482D03*
X3317Y3482D03*
G54D34*
X2557Y207D03*
X2557Y257D03*
X2557Y307D03*
X2557Y357D03*
X2557Y407D03*
X2557Y457D03*
X2557Y507D03*
X2557Y557D03*
X2315Y557D03*
X2315Y507D03*
X2315Y457D03*
X2315Y407D03*
X2315Y357D03*
X2315Y307D03*
X2315Y257D03*
X2315Y207D03*
G54D23*
X2144Y557D03*
X2225Y557D03*
X532Y1220D03*
X451Y1220D03*
X532Y1520D03*
X451Y1520D03*
X2394Y2932D03*
X2475Y2932D03*
X3292Y3620D03*
X3211Y3620D03*
G54D27*
X2532Y3539D03*
X2532Y3620D03*
G54D23*
X532Y1420D03*
X451Y1420D03*
X532Y1320D03*
X451Y1320D03*
X532Y1795D03*
X451Y1795D03*
G54D27*
X1344Y3302D03*
X1344Y3382D03*
X1244Y3589D03*
X1244Y3670D03*
X1344Y3589D03*
X1344Y3670D03*
X1244Y3302D03*
X1244Y3382D03*
X657Y3589D03*
X657Y3670D03*
X544Y3589D03*
X544Y3670D03*
X657Y3302D03*
X657Y3382D03*
X544Y3302D03*
X544Y3382D03*
G54D23*
X3525Y2257D03*
X3444Y2257D03*
X3525Y1982D03*
X3444Y1982D03*
X3525Y2070D03*
X3444Y2070D03*
X3525Y2170D03*
X3444Y2170D03*
X2419Y2420D03*
X2500Y2420D03*
X3525Y1382D03*
X3444Y1382D03*
X3525Y1470D03*
X3444Y1470D03*
X3525Y1570D03*
X3444Y1570D03*
X3525Y1657D03*
X3444Y1657D03*
G54D27*
X1269Y2652D03*
X1269Y2732D03*
X1607Y2652D03*
X1607Y2732D03*
X1944Y2652D03*
X1944Y2732D03*
X2282Y2652D03*
X2282Y2732D03*
X1269Y2926D03*
X1269Y2845D03*
X1607Y2926D03*
X1607Y2845D03*
X1944Y2926D03*
X1944Y2845D03*
X2282Y2926D03*
X2282Y2845D03*
G54D23*
X2714Y2082D03*
X2794Y2082D03*
X2794Y2182D03*
X2714Y2182D03*
X1713Y782D03*
X1632Y782D03*
X2325Y807D03*
X2244Y807D03*
X532Y1695D03*
X451Y1695D03*
X2994Y1670D03*
X3075Y1670D03*
G54D27*
X2769Y1345D03*
X2769Y1264D03*
X2082Y964D03*
X2082Y1045D03*
G54D23*
X1394Y1457D03*
X1475Y1457D03*
X2475Y2832D03*
X2394Y2832D03*
G54D27*
X1982Y964D03*
X1982Y1045D03*
G54D23*
X1713Y870D03*
X1632Y870D03*
G54D27*
X1782Y1045D03*
X1782Y964D03*
G54D23*
X3044Y1266D03*
X2964Y1266D03*
G54D27*
X2482Y1264D03*
X2482Y1345D03*
X3532Y877D03*
X3532Y957D03*
G54D23*
X3289Y545D03*
X3369Y545D03*
X3200Y545D03*
X3119Y545D03*
G54D27*
X3532Y564D03*
X3532Y645D03*
X3007Y570D03*
X3007Y489D03*
X2682Y739D03*
X2682Y820D03*
G54D23*
X2501Y807D03*
X2582Y807D03*
G54D35*
X3132Y682D03*
G54D22*
X794Y2370D03*
G54D36*
X1419Y2882D03*
X2094Y2882D03*
X1757Y2882D03*
X1082Y2882D03*
X2418Y3620D03*
X369Y3377D03*
X1069Y3664D03*
X369Y3664D03*
X1069Y3377D03*
G54D37*
X3757Y3557D03*
G54D27*
X2882Y964D03*
X2882Y1045D03*
X2807Y489D03*
X2807Y570D03*
X2907Y489D03*
X2907Y570D03*
G54D23*
X1357Y782D03*
X1438Y782D03*
G54D27*
X1882Y964D03*
X1882Y1045D03*
X2182Y964D03*
X2182Y1045D03*
X2982Y964D03*
X2982Y1045D03*
X2682Y964D03*
X2682Y1045D03*
X2582Y964D03*
X2582Y1045D03*
X2782Y964D03*
X2782Y1045D03*
X2482Y964D03*
X2482Y1045D03*
X2282Y964D03*
X2282Y1045D03*
X2382Y964D03*
X2382Y1045D03*
G54D23*
X2714Y1795D03*
X2794Y1795D03*
X2794Y1895D03*
X2714Y1895D03*
X2669Y1266D03*
X2589Y1266D03*
G54D27*
X2869Y1264D03*
X2869Y1345D03*
G54D23*
X1919Y407D03*
X2000Y407D03*
G54D38*
X2943Y3024D02*
X2944Y3024D01*
X2936Y3023D02*
X2952Y3023D01*
X2932Y3022D02*
X2956Y3022D01*
X2929Y3021D02*
X2959Y3021D01*
X2927Y3020D02*
X2961Y3020D01*
X2925Y3019D02*
X2963Y3019D01*
X2923Y3018D02*
X2965Y3018D01*
X2921Y3017D02*
X2966Y3017D01*
X2920Y3016D02*
X2968Y3016D01*
X2919Y3015D02*
X2969Y3015D01*
X2917Y3014D02*
X2970Y3014D01*
X2916Y3013D02*
X2971Y3013D01*
X2915Y3012D02*
X2972Y3012D01*
X2914Y3011D02*
X2973Y3011D01*
X2913Y3010D02*
X2974Y3010D01*
X2913Y3009D02*
X2975Y3009D01*
X2912Y3008D02*
X2976Y3008D01*
X2911Y3007D02*
X2977Y3007D01*
X2910Y3006D02*
X2977Y3006D01*
X2910Y3005D02*
X2978Y3005D01*
X2909Y3004D02*
X2979Y3004D01*
X2908Y3003D02*
X2979Y3003D01*
X2908Y3002D02*
X2980Y3002D01*
X2907Y3001D02*
X2980Y3001D01*
X2907Y3000D02*
X2981Y3000D01*
X2906Y2999D02*
X2981Y2999D01*
X2906Y2998D02*
X2982Y2998D01*
X2906Y2997D02*
X2982Y2997D01*
X2905Y2996D02*
X2982Y2996D01*
X2905Y2995D02*
X2983Y2995D01*
X2905Y2994D02*
X2983Y2994D01*
X2905Y2993D02*
X2983Y2993D01*
X2904Y2992D02*
X2983Y2992D01*
X2904Y2991D02*
X2984Y2991D01*
X2904Y2990D02*
X2984Y2990D01*
X2904Y2989D02*
X2984Y2989D01*
X2904Y2988D02*
X2984Y2988D01*
X2903Y2987D02*
X2984Y2987D01*
X2903Y2986D02*
X2984Y2986D01*
X2903Y2985D02*
X2984Y2985D01*
X2903Y2984D02*
X2985Y2984D01*
X2903Y2983D02*
X2985Y2983D01*
X2903Y2982D02*
X2985Y2982D01*
X2903Y2981D02*
X2984Y2981D01*
X2903Y2980D02*
X2984Y2980D01*
X2903Y2979D02*
X2984Y2979D01*
X2904Y2978D02*
X2984Y2978D01*
X2904Y2977D02*
X2984Y2977D01*
X2904Y2976D02*
X2984Y2976D01*
X2904Y2975D02*
X2984Y2975D01*
X2904Y2974D02*
X2984Y2974D01*
X2904Y2973D02*
X2983Y2973D01*
X2905Y2972D02*
X2983Y2972D01*
X2905Y2971D02*
X2983Y2971D01*
X2905Y2970D02*
X2983Y2970D01*
X2906Y2969D02*
X2982Y2969D01*
X2906Y2968D02*
X2982Y2968D01*
X2906Y2967D02*
X2981Y2967D01*
X2907Y2966D02*
X2981Y2966D01*
X2907Y2965D02*
X2980Y2965D01*
X2908Y2964D02*
X2980Y2964D01*
X2908Y2963D02*
X2979Y2963D01*
X2909Y2962D02*
X2979Y2962D01*
X2909Y2961D02*
X2978Y2961D01*
X2910Y2960D02*
X2978Y2960D01*
X2911Y2959D02*
X2977Y2959D01*
X2912Y2958D02*
X2976Y2958D01*
X2912Y2957D02*
X2975Y2957D01*
X2913Y2956D02*
X2975Y2956D01*
X2914Y2955D02*
X2974Y2955D01*
X2915Y2954D02*
X2973Y2954D01*
X2916Y2953D02*
X2972Y2953D01*
X2917Y2952D02*
X2971Y2952D01*
X2918Y2951D02*
X2970Y2951D01*
X2920Y2950D02*
X2968Y2950D01*
X2921Y2949D02*
X2967Y2949D01*
X2922Y2948D02*
X2965Y2948D01*
X2924Y2947D02*
X2964Y2947D01*
X2926Y2946D02*
X2962Y2946D01*
X2928Y2945D02*
X2960Y2945D01*
X2931Y2944D02*
X2957Y2944D01*
X2934Y2943D02*
X2954Y2943D01*
X2939Y2942D02*
X2949Y2942D01*
X2944Y2524D02*
X2944Y2524D01*
X2936Y2523D02*
X2952Y2523D01*
X2932Y2522D02*
X2956Y2522D01*
X2929Y2521D02*
X2959Y2521D01*
X2927Y2520D02*
X2961Y2520D01*
X2925Y2519D02*
X2963Y2519D01*
X2923Y2518D02*
X2965Y2518D01*
X2921Y2517D02*
X2966Y2517D01*
X2920Y2516D02*
X2968Y2516D01*
X2919Y2515D02*
X2969Y2515D01*
X2918Y2514D02*
X2970Y2514D01*
X2916Y2513D02*
X2971Y2513D01*
X2915Y2512D02*
X2972Y2512D01*
X2914Y2511D02*
X2973Y2511D01*
X2913Y2510D02*
X2974Y2510D01*
X2913Y2509D02*
X2975Y2509D01*
X2912Y2508D02*
X2976Y2508D01*
X2911Y2507D02*
X2977Y2507D01*
X2910Y2506D02*
X2977Y2506D01*
X2910Y2505D02*
X2978Y2505D01*
X2909Y2504D02*
X2979Y2504D01*
X2909Y2503D02*
X2979Y2503D01*
X2908Y2502D02*
X2980Y2502D01*
X2907Y2501D02*
X2980Y2501D01*
X2907Y2500D02*
X2981Y2500D01*
X2906Y2499D02*
X2981Y2499D01*
X2906Y2498D02*
X2982Y2498D01*
X2906Y2497D02*
X2982Y2497D01*
X2905Y2496D02*
X2982Y2496D01*
X2905Y2495D02*
X2983Y2495D01*
X2905Y2494D02*
X2983Y2494D01*
X2905Y2493D02*
X2983Y2493D01*
X2904Y2492D02*
X2983Y2492D01*
X2904Y2491D02*
X2984Y2491D01*
X2904Y2490D02*
X2984Y2490D01*
X2904Y2489D02*
X2984Y2489D01*
X2904Y2488D02*
X2984Y2488D01*
X2903Y2487D02*
X2984Y2487D01*
X2903Y2486D02*
X2984Y2486D01*
X2903Y2485D02*
X2984Y2485D01*
X2903Y2484D02*
X2985Y2484D01*
X2903Y2483D02*
X2985Y2483D01*
X2903Y2482D02*
X2985Y2482D01*
X2903Y2481D02*
X2984Y2481D01*
X2903Y2480D02*
X2984Y2480D01*
X2903Y2479D02*
X2984Y2479D01*
X2904Y2478D02*
X2984Y2478D01*
X2904Y2477D02*
X2984Y2477D01*
X2904Y2476D02*
X2984Y2476D01*
X2904Y2475D02*
X2984Y2475D01*
X2904Y2474D02*
X2984Y2474D01*
X2904Y2473D02*
X2983Y2473D01*
X2905Y2472D02*
X2983Y2472D01*
X2905Y2471D02*
X2983Y2471D01*
X2905Y2470D02*
X2983Y2470D01*
X2906Y2469D02*
X2982Y2469D01*
X2906Y2468D02*
X2982Y2468D01*
X2906Y2467D02*
X2981Y2467D01*
X2907Y2466D02*
X2981Y2466D01*
X2907Y2465D02*
X2980Y2465D01*
X2908Y2464D02*
X2980Y2464D01*
X2908Y2463D02*
X2979Y2463D01*
X2909Y2462D02*
X2979Y2462D01*
X2910Y2461D02*
X2978Y2461D01*
X2910Y2460D02*
X2978Y2460D01*
X2911Y2459D02*
X2977Y2459D01*
X2912Y2458D02*
X2976Y2458D01*
X2912Y2457D02*
X2975Y2457D01*
X2913Y2456D02*
X2975Y2456D01*
X2914Y2455D02*
X2974Y2455D01*
X2915Y2454D02*
X2973Y2454D01*
X2916Y2453D02*
X2972Y2453D01*
X2917Y2452D02*
X2971Y2452D01*
X2918Y2451D02*
X2970Y2451D01*
X2920Y2450D02*
X2968Y2450D01*
X2921Y2449D02*
X2967Y2449D01*
X2922Y2448D02*
X2965Y2448D01*
X2924Y2447D02*
X2964Y2447D01*
X2926Y2446D02*
X2962Y2446D01*
X2928Y2445D02*
X2960Y2445D01*
X2931Y2444D02*
X2957Y2444D01*
X2934Y2443D02*
X2954Y2443D01*
X2939Y2442D02*
X2949Y2442D01*
D02*
G04 End of Mask1*
M02*