G04 MADE WITH FRITZING*
G04 WWW.FRITZING.ORG*
G04 DOUBLE SIDED*
G04 HOLES PLATED*
G04 CONTOUR ON CENTER OF CONTOUR VECTOR*
%ASAXBY*%
%FSLAX23Y23*%
%MOIN*%
%OFA0B0*%
%SFA1.0B1.0*%
%ADD10C,0.074000*%
%ADD11R,0.275591X0.275591*%
%ADD12R,0.059055X0.106299*%
%ADD13R,0.047244X0.078740*%
%ADD14R,0.059055X0.055118*%
%ADD15R,0.055118X0.059055*%
%ADD16R,0.086614X0.023622*%
%ADD17R,0.090086X0.113708*%
%ADD18R,0.026000X0.080000*%
%ADD19R,0.086900X0.024000*%
%ADD20R,0.078740X0.047244*%
%ADD21R,0.080000X0.026000*%
%ADD22R,0.001000X0.001000*%
%LNPASTEMASK1*%
G90*
G70*
G54D10*
X607Y2494D03*
X607Y2394D03*
X607Y2294D03*
G54D11*
X2882Y3345D03*
G54D12*
X2783Y3618D03*
X2980Y3618D03*
G54D13*
X2657Y3620D03*
X2657Y3510D03*
G54D14*
X2232Y3270D03*
X2232Y3351D03*
G54D15*
X2301Y3170D03*
X2382Y3170D03*
G54D16*
X482Y2595D03*
X120Y2595D03*
X482Y2545D03*
X482Y2645D03*
X482Y2695D03*
X120Y2545D03*
X120Y2645D03*
X120Y2695D03*
G54D17*
X3207Y3257D03*
X3376Y3257D03*
X1882Y3395D03*
X2051Y3395D03*
G54D18*
X2019Y1390D03*
X2069Y1390D03*
X2119Y1390D03*
X2169Y1390D03*
X2219Y1390D03*
X2269Y1390D03*
X2319Y1390D03*
X2369Y1390D03*
X2369Y1632D03*
X2319Y1632D03*
X2269Y1632D03*
X2219Y1632D03*
X2169Y1632D03*
X2119Y1632D03*
X2069Y1632D03*
X2019Y1632D03*
G54D19*
X3269Y2132D03*
X3269Y2182D03*
X3269Y2232D03*
X3269Y2282D03*
X3004Y2282D03*
X3004Y2232D03*
X3004Y2182D03*
X3004Y2132D03*
X3269Y1745D03*
X3269Y1795D03*
X3269Y1845D03*
X3269Y1895D03*
X3004Y1895D03*
X3004Y1845D03*
X3004Y1795D03*
X3004Y1745D03*
G54D17*
X569Y1407D03*
X400Y1407D03*
X569Y1545D03*
X400Y1545D03*
X569Y1682D03*
X400Y1682D03*
X569Y1820D03*
X400Y1820D03*
G54D15*
X57Y1407D03*
X138Y1407D03*
X57Y1545D03*
X138Y1545D03*
X57Y1682D03*
X138Y1682D03*
X57Y1820D03*
X138Y1820D03*
X2532Y1795D03*
X2613Y1795D03*
X2532Y1895D03*
X2613Y1895D03*
X2532Y2082D03*
X2613Y2082D03*
X2532Y2182D03*
X2613Y2182D03*
X307Y1407D03*
X226Y1407D03*
X307Y1545D03*
X226Y1545D03*
X307Y1682D03*
X226Y1682D03*
X307Y1820D03*
X226Y1820D03*
X2344Y1795D03*
X2425Y1795D03*
X2344Y1895D03*
X2425Y1895D03*
X2344Y2082D03*
X2425Y2082D03*
X2344Y2182D03*
X2425Y2182D03*
G54D20*
X3207Y3482D03*
X3317Y3482D03*
G54D21*
X2557Y207D03*
X2557Y257D03*
X2557Y307D03*
X2557Y357D03*
X2557Y407D03*
X2557Y457D03*
X2557Y507D03*
X2557Y557D03*
X2315Y557D03*
X2315Y507D03*
X2315Y457D03*
X2315Y407D03*
X2315Y357D03*
X2315Y307D03*
X2315Y257D03*
X2315Y207D03*
G54D15*
X2144Y557D03*
X2225Y557D03*
X582Y1182D03*
X501Y1182D03*
X369Y1070D03*
X289Y1070D03*
X2394Y2932D03*
X2475Y2932D03*
X3292Y3620D03*
X3211Y3620D03*
G54D14*
X2532Y3539D03*
X2532Y3620D03*
G54D15*
X369Y970D03*
X289Y970D03*
X582Y1270D03*
X501Y1270D03*
X250Y1270D03*
X169Y1270D03*
G54D14*
X1344Y3302D03*
X1344Y3382D03*
X1244Y3589D03*
X1244Y3670D03*
X1344Y3589D03*
X1344Y3670D03*
X1244Y3302D03*
X1244Y3382D03*
X657Y3589D03*
X657Y3670D03*
X544Y3589D03*
X544Y3670D03*
X657Y3302D03*
X657Y3382D03*
X544Y3302D03*
X544Y3382D03*
G54D15*
X3525Y2257D03*
X3444Y2257D03*
X3525Y1982D03*
X3444Y1982D03*
X3525Y2070D03*
X3444Y2070D03*
X3525Y2170D03*
X3444Y2170D03*
X2419Y2420D03*
X2500Y2420D03*
X3525Y1382D03*
X3444Y1382D03*
X3525Y1470D03*
X3444Y1470D03*
X3525Y1570D03*
X3444Y1570D03*
X3525Y1657D03*
X3444Y1657D03*
G54D14*
X1269Y2652D03*
X1269Y2732D03*
X1607Y2652D03*
X1607Y2732D03*
X1944Y2652D03*
X1944Y2732D03*
X2282Y2652D03*
X2282Y2732D03*
X1269Y2926D03*
X1269Y2845D03*
X1607Y2926D03*
X1607Y2845D03*
X1944Y2926D03*
X1944Y2845D03*
X2282Y2926D03*
X2282Y2845D03*
G54D15*
X2714Y2082D03*
X2794Y2082D03*
X2794Y2182D03*
X2714Y2182D03*
X1713Y782D03*
X1632Y782D03*
X2325Y807D03*
X2244Y807D03*
X250Y1170D03*
X169Y1170D03*
X2994Y1670D03*
X3075Y1670D03*
G54D14*
X2769Y1345D03*
X2769Y1264D03*
X2082Y964D03*
X2082Y1045D03*
G54D15*
X1282Y1295D03*
X1201Y1295D03*
X2475Y2832D03*
X2394Y2832D03*
G54D14*
X1982Y964D03*
X1982Y1045D03*
G54D15*
X1713Y870D03*
X1632Y870D03*
G54D14*
X1782Y1045D03*
X1782Y964D03*
G54D15*
X3044Y1266D03*
X2964Y1266D03*
G54D14*
X2482Y1264D03*
X2482Y1345D03*
X3532Y964D03*
X3532Y1045D03*
G54D15*
X3289Y545D03*
X3369Y545D03*
X3200Y545D03*
X3119Y545D03*
G54D14*
X3532Y564D03*
X3532Y645D03*
X3007Y570D03*
X3007Y489D03*
X2682Y739D03*
X2682Y820D03*
G54D15*
X2501Y807D03*
X2582Y807D03*
G54D14*
X2882Y964D03*
X2882Y1045D03*
X2807Y489D03*
X2807Y570D03*
X2907Y489D03*
X2907Y570D03*
G54D15*
X1357Y782D03*
X1438Y782D03*
G54D14*
X1882Y964D03*
X1882Y1045D03*
X2182Y964D03*
X2182Y1045D03*
X2982Y964D03*
X2982Y1045D03*
X2682Y964D03*
X2682Y1045D03*
X2582Y964D03*
X2582Y1045D03*
X2782Y964D03*
X2782Y1045D03*
X2482Y964D03*
X2482Y1045D03*
X2282Y964D03*
X2282Y1045D03*
X2382Y964D03*
X2382Y1045D03*
G54D15*
X2714Y1795D03*
X2794Y1795D03*
X2794Y1895D03*
X2714Y1895D03*
X2669Y1266D03*
X2589Y1266D03*
G54D14*
X2869Y1264D03*
X2869Y1345D03*
G54D15*
X1919Y407D03*
X2000Y407D03*
G54D22*
D02*
G04 End of PasteMask1*
M02*