G04 MADE WITH FRITZING*
G04 WWW.FRITZING.ORG*
G04 DOUBLE SIDED*
G04 HOLES PLATED*
G04 CONTOUR ON CENTER OF CONTOUR VECTOR*
%ASAXBY*%
%FSLAX23Y23*%
%MOIN*%
%OFA0B0*%
%SFA1.0B1.0*%
%ADD10C,0.049370*%
%ADD11C,0.084000*%
%ADD12C,0.080000*%
%ADD13C,0.187165*%
%ADD14C,0.088000*%
%ADD15C,0.085000*%
%ADD16C,0.082917*%
%ADD17C,0.092000*%
%ADD18C,0.061496*%
%ADD19C,0.109055*%
%ADD20R,0.084000X0.084000*%
%ADD21R,0.036000X0.090000*%
%ADD22R,0.096900X0.034000*%
%ADD23R,0.100086X0.123708*%
%ADD24R,0.033622X0.096614*%
%ADD25R,0.065118X0.069055*%
%ADD26R,0.057244X0.088740*%
%ADD27R,0.090000X0.036000*%
%ADD28R,0.069055X0.065118*%
%ADD29R,0.080000X0.080000*%
%ADD30R,0.085000X0.085000*%
%ADD31R,0.092000X0.092000*%
%ADD32R,0.109055X0.109055*%
%LNMASK1*%
G90*
G70*
G54D10*
X57Y2234D03*
X882Y2322D03*
X219Y1022D03*
G54D11*
X607Y2784D03*
X607Y2684D03*
X607Y2584D03*
X607Y2484D03*
X607Y2384D03*
X607Y2283D03*
G54D10*
X582Y659D03*
X82Y1322D03*
X94Y3172D03*
X1507Y3697D03*
X1144Y709D03*
X1744Y322D03*
X1507Y359D03*
X1432Y359D03*
X1119Y322D03*
X2281Y719D03*
X1970Y221D03*
X1994Y322D03*
X2057Y422D03*
X2181Y894D03*
X3582Y1247D03*
X2807Y622D03*
X307Y1909D03*
X582Y2922D03*
X707Y2872D03*
X1232Y1834D03*
X3619Y809D03*
X3344Y2322D03*
X3282Y1584D03*
X1294Y484D03*
X57Y3772D03*
X2357Y659D03*
X2269Y1497D03*
X2632Y1459D03*
X1794Y859D03*
X2282Y484D03*
X1519Y2009D03*
X1119Y1222D03*
X2219Y1334D03*
X2069Y1547D03*
X2319Y1334D03*
X2369Y1534D03*
X1732Y1409D03*
X2994Y3247D03*
X1819Y3247D03*
X3732Y1172D03*
X869Y2972D03*
X2344Y2572D03*
G54D12*
X2557Y3584D03*
X2557Y3384D03*
G54D10*
X1532Y772D03*
G54D11*
X1594Y3684D03*
X1594Y3584D03*
X1594Y3484D03*
X1594Y3384D03*
X1594Y3284D03*
X1594Y3184D03*
X1594Y3684D03*
X1594Y3584D03*
X1594Y3484D03*
X1594Y3384D03*
X1594Y3284D03*
X1594Y3184D03*
G54D10*
X619Y1259D03*
X3057Y747D03*
G54D13*
X132Y2084D03*
X132Y2984D03*
G54D10*
X1732Y2372D03*
X2069Y2447D03*
X1394Y2309D03*
X769Y3222D03*
X1369Y3484D03*
X1419Y3572D03*
X3432Y1084D03*
X1882Y1159D03*
X632Y1072D03*
X2782Y1159D03*
X3194Y2609D03*
X3019Y1959D03*
X3332Y1997D03*
G54D12*
X3544Y2959D03*
X3544Y2459D03*
X3444Y2959D03*
X3444Y2459D03*
X3344Y2959D03*
X3344Y2459D03*
X3244Y2959D03*
X3244Y2459D03*
X3144Y2959D03*
X3144Y2459D03*
X3044Y2959D03*
X3044Y2459D03*
X2944Y2959D03*
X2944Y2459D03*
X2844Y2959D03*
X2844Y2459D03*
G54D10*
X3544Y3247D03*
X2044Y759D03*
G54D14*
X469Y422D03*
X369Y422D03*
X269Y422D03*
X169Y422D03*
X469Y922D03*
X369Y922D03*
X269Y922D03*
X169Y922D03*
X169Y722D03*
X269Y722D03*
X369Y722D03*
X369Y522D03*
X169Y522D03*
X269Y522D03*
X469Y522D03*
X169Y322D03*
X269Y322D03*
X169Y822D03*
X269Y822D03*
X369Y822D03*
X469Y322D03*
X369Y622D03*
X469Y622D03*
X1407Y1322D03*
X1307Y1322D03*
X1207Y1322D03*
X169Y622D03*
X269Y622D03*
X469Y822D03*
X369Y322D03*
X469Y722D03*
G54D10*
X2894Y2547D03*
G54D15*
X3132Y672D03*
X3132Y972D03*
X3232Y672D03*
X3232Y972D03*
X3332Y672D03*
X3332Y972D03*
X3432Y672D03*
X3432Y972D03*
G54D11*
X882Y2209D03*
X882Y2109D03*
X882Y2009D03*
X882Y1909D03*
X882Y1809D03*
X882Y1709D03*
X882Y1609D03*
X882Y1509D03*
X882Y1409D03*
X882Y1309D03*
X882Y1209D03*
X882Y1109D03*
X882Y1009D03*
X882Y909D03*
X882Y809D03*
X882Y709D03*
X882Y609D03*
X882Y509D03*
X882Y409D03*
X882Y309D03*
X782Y2209D03*
X782Y2109D03*
X782Y2009D03*
X782Y1909D03*
X782Y1809D03*
X782Y1709D03*
X782Y1609D03*
X782Y1509D03*
X782Y1409D03*
X782Y1309D03*
X782Y1209D03*
X782Y1109D03*
X782Y1009D03*
X782Y909D03*
X782Y809D03*
X782Y709D03*
X782Y609D03*
X782Y509D03*
X782Y409D03*
X782Y309D03*
G54D16*
X2982Y1159D03*
X1382Y1159D03*
X3082Y1159D03*
X3182Y1159D03*
X3282Y1159D03*
X3382Y1159D03*
X3682Y2559D03*
X3482Y1159D03*
X3582Y1159D03*
X1422Y3059D03*
X1982Y1159D03*
X2082Y1159D03*
X2182Y1159D03*
X2282Y1159D03*
X3682Y1759D03*
X2382Y1159D03*
X2482Y1159D03*
X2582Y1159D03*
X2682Y1159D03*
X2182Y3059D03*
X3682Y2959D03*
X3682Y2159D03*
X3682Y1359D03*
X1022Y3059D03*
X1782Y1159D03*
X1782Y3059D03*
X3682Y2759D03*
X3682Y2359D03*
X3682Y1959D03*
X3382Y3059D03*
X3682Y1559D03*
X3282Y3059D03*
X3182Y3059D03*
X3082Y3059D03*
X2982Y3059D03*
X2882Y3059D03*
X2782Y3059D03*
X2682Y3059D03*
X822Y3059D03*
X1222Y3059D03*
X1622Y3059D03*
X1182Y1159D03*
X1582Y1159D03*
X2382Y3059D03*
X1982Y3059D03*
X3682Y3059D03*
X3682Y2859D03*
X3682Y2659D03*
X3682Y2459D03*
X3682Y2259D03*
X3682Y2059D03*
X3682Y1859D03*
X3682Y1659D03*
X3682Y1459D03*
X722Y3059D03*
X922Y3059D03*
X1122Y3059D03*
X1322Y3059D03*
X1522Y3059D03*
X1082Y1159D03*
X1282Y1159D03*
X1482Y1159D03*
X1682Y1159D03*
X2482Y3059D03*
X2282Y3059D03*
X2082Y3059D03*
X1882Y3059D03*
X3782Y3059D03*
X3782Y2959D03*
X3782Y2859D03*
X3782Y2759D03*
X3782Y2659D03*
X3782Y2559D03*
X3782Y2459D03*
X3782Y2359D03*
X3782Y2259D03*
X3782Y2159D03*
X3782Y2059D03*
X3782Y1959D03*
X3782Y1859D03*
X3782Y1759D03*
X3782Y1659D03*
X3782Y1559D03*
X3782Y1459D03*
X3782Y1359D03*
X2882Y1159D03*
G54D17*
X1257Y2797D03*
X1257Y2697D03*
X1257Y2597D03*
X1932Y2797D03*
X1932Y2697D03*
X1932Y2597D03*
X1594Y2797D03*
X1594Y2697D03*
X1594Y2597D03*
X919Y2797D03*
X919Y2697D03*
X919Y2597D03*
G54D14*
X3744Y347D03*
X3744Y447D03*
X3744Y547D03*
X3744Y972D03*
X3744Y872D03*
X3744Y772D03*
X2719Y2822D03*
X2719Y2722D03*
X2719Y2622D03*
X3119Y347D03*
X3219Y347D03*
X2632Y397D03*
X2532Y397D03*
X3469Y347D03*
X3369Y347D03*
G54D17*
X2907Y3584D03*
X2907Y3484D03*
X2907Y3384D03*
X2467Y3259D03*
X2169Y3259D03*
X3157Y3582D03*
X3157Y3284D03*
G54D18*
X3406Y3307D03*
X3406Y3602D03*
X3406Y3307D03*
X3406Y3602D03*
G54D17*
X369Y3366D03*
X269Y3366D03*
X169Y3366D03*
X1069Y3653D03*
X969Y3653D03*
X869Y3653D03*
X369Y3653D03*
X269Y3653D03*
X169Y3653D03*
X1069Y3366D03*
X969Y3366D03*
X869Y3366D03*
G54D19*
X3656Y3552D03*
X3656Y3352D03*
G54D20*
X607Y2784D03*
G54D21*
X2019Y1417D03*
X2069Y1417D03*
X2119Y1417D03*
X2169Y1417D03*
X2219Y1417D03*
X2269Y1417D03*
X2319Y1417D03*
X2369Y1417D03*
X2369Y1659D03*
X2319Y1659D03*
X2269Y1659D03*
X2219Y1659D03*
X2169Y1659D03*
X2119Y1659D03*
X2069Y1659D03*
X2019Y1659D03*
G54D22*
X3269Y2122D03*
X3269Y2172D03*
X3269Y2222D03*
X3269Y2272D03*
X3004Y2272D03*
X3004Y2222D03*
X3004Y2172D03*
X3004Y2122D03*
X3269Y1734D03*
X3269Y1784D03*
X3269Y1834D03*
X3269Y1884D03*
X3004Y1884D03*
X3004Y1834D03*
X3004Y1784D03*
X3004Y1734D03*
G54D23*
X569Y1397D03*
X400Y1397D03*
X569Y1534D03*
X400Y1534D03*
X569Y1672D03*
X400Y1672D03*
X569Y1809D03*
X400Y1809D03*
G54D24*
X457Y2709D03*
X457Y2347D03*
X507Y2709D03*
X407Y2709D03*
X357Y2709D03*
X507Y2347D03*
X407Y2347D03*
X357Y2347D03*
G54D25*
X57Y1397D03*
X138Y1397D03*
X57Y1534D03*
X138Y1534D03*
X57Y1672D03*
X138Y1672D03*
X57Y1809D03*
X138Y1809D03*
X1575Y1784D03*
X1656Y1784D03*
X1575Y1884D03*
X1656Y1884D03*
X1575Y2072D03*
X1656Y2072D03*
X1575Y2172D03*
X1656Y2172D03*
X307Y1397D03*
X226Y1397D03*
X307Y1534D03*
X226Y1534D03*
X307Y1672D03*
X226Y1672D03*
X307Y1809D03*
X226Y1809D03*
X1388Y1784D03*
X1468Y1784D03*
X1388Y1884D03*
X1468Y1884D03*
X1388Y2072D03*
X1468Y2072D03*
X1388Y2172D03*
X1468Y2172D03*
G54D26*
X3269Y3559D03*
X3269Y3669D03*
G54D27*
X1907Y172D03*
X1907Y222D03*
X1907Y272D03*
X1907Y322D03*
X1907Y372D03*
X1907Y422D03*
X1907Y472D03*
X1907Y522D03*
X1665Y522D03*
X1665Y472D03*
X1665Y422D03*
X1665Y372D03*
X1665Y322D03*
X1665Y272D03*
X1665Y222D03*
X1665Y172D03*
G54D25*
X1589Y609D03*
X1669Y609D03*
X543Y1159D03*
X463Y1159D03*
X2282Y2922D03*
X2363Y2922D03*
G54D28*
X3269Y3316D03*
X3269Y3397D03*
X2707Y3565D03*
X2707Y3484D03*
G54D25*
X463Y1259D03*
X543Y1259D03*
X250Y1259D03*
X169Y1259D03*
G54D28*
X1344Y3291D03*
X1344Y3372D03*
X1244Y3578D03*
X1244Y3659D03*
X1344Y3578D03*
X1344Y3659D03*
X1244Y3291D03*
X1244Y3372D03*
X657Y3578D03*
X657Y3659D03*
X544Y3578D03*
X544Y3659D03*
X657Y3291D03*
X657Y3372D03*
X544Y3291D03*
X544Y3372D03*
G54D25*
X3525Y2247D03*
X3444Y2247D03*
X3525Y1972D03*
X3444Y1972D03*
X3525Y2059D03*
X3444Y2059D03*
X3525Y2159D03*
X3444Y2159D03*
X2757Y2322D03*
X2838Y2322D03*
X3525Y1372D03*
X3444Y1372D03*
X3525Y1459D03*
X3444Y1459D03*
X3525Y1559D03*
X3444Y1559D03*
X3525Y1647D03*
X3444Y1647D03*
G54D28*
X1107Y2603D03*
X1107Y2684D03*
X1444Y2603D03*
X1444Y2684D03*
X1782Y2603D03*
X1782Y2684D03*
X2119Y2603D03*
X2119Y2684D03*
X1107Y2877D03*
X1107Y2797D03*
X1444Y2877D03*
X1444Y2797D03*
X1782Y2877D03*
X1782Y2797D03*
X2119Y2877D03*
X2119Y2797D03*
G54D25*
X1757Y2072D03*
X1838Y2072D03*
X1838Y2172D03*
X1757Y2172D03*
X1713Y772D03*
X1632Y772D03*
X2363Y797D03*
X2282Y797D03*
X250Y1159D03*
X169Y1159D03*
X2994Y1659D03*
X3075Y1659D03*
G54D28*
X2769Y1334D03*
X2769Y1253D03*
X2082Y953D03*
X2082Y1034D03*
X1207Y1447D03*
X1207Y1527D03*
X1082Y1409D03*
X1082Y1328D03*
G54D25*
X2363Y2822D03*
X2282Y2822D03*
G54D28*
X1982Y953D03*
X1982Y1034D03*
G54D25*
X1713Y859D03*
X1632Y859D03*
G54D28*
X1782Y1034D03*
X1782Y953D03*
G54D25*
X3044Y1255D03*
X2964Y1255D03*
G54D28*
X2482Y1253D03*
X2482Y1334D03*
G54D25*
X3625Y972D03*
X3544Y972D03*
X3289Y534D03*
X3369Y534D03*
X3200Y534D03*
X3119Y534D03*
X3625Y547D03*
X3544Y547D03*
G54D28*
X3007Y559D03*
X3007Y478D03*
G54D29*
X2844Y2459D03*
X3444Y2459D03*
G54D28*
X2682Y728D03*
X2682Y809D03*
G54D25*
X2501Y797D03*
X2582Y797D03*
G54D30*
X3132Y672D03*
G54D20*
X782Y2209D03*
G54D31*
X1257Y2797D03*
X1932Y2797D03*
X1594Y2797D03*
X919Y2797D03*
X2907Y3584D03*
X2468Y3259D03*
X3157Y3583D03*
X369Y3366D03*
X1069Y3653D03*
X369Y3653D03*
X1069Y3366D03*
G54D32*
X3656Y3552D03*
G54D28*
X2882Y953D03*
X2882Y1034D03*
X2807Y478D03*
X2807Y559D03*
X2907Y478D03*
X2907Y559D03*
G54D25*
X1357Y772D03*
X1438Y772D03*
G54D28*
X1882Y953D03*
X1882Y1034D03*
X2182Y953D03*
X2182Y1034D03*
X1407Y1447D03*
X1407Y1527D03*
X2982Y953D03*
X2982Y1034D03*
X2682Y953D03*
X2682Y1034D03*
X2582Y953D03*
X2582Y1034D03*
X2782Y953D03*
X2782Y1034D03*
X2482Y953D03*
X2482Y1034D03*
X2282Y953D03*
X2282Y1034D03*
X2382Y953D03*
X2382Y1034D03*
G54D25*
X1757Y1784D03*
X1838Y1784D03*
X1838Y1884D03*
X1757Y1884D03*
X2669Y1255D03*
X2589Y1255D03*
G54D28*
X2869Y1253D03*
X2869Y1334D03*
G04 End of Mask1*
M02*