; NON-PLATED HOLES START AT T1
; THROUGH (PLATED) HOLES START AT T100
M48
INCH
T1C0.177165
T100C0.038000
T101C0.042000
T102C0.031496
T103C0.030000
T104C0.040000
T105C0.015748
T106C0.038194
T107C0.035000
T108C0.059055
%
T1
X001318Y029841
X001318Y020841
T100
X002693Y006216
X004693Y003216
X027193Y028216
X037443Y008716
X003693Y006216
X002693Y003216
X003693Y008216
X001693Y005216
X004693Y006216
X002693Y007216
X001693Y006216
X004693Y009216
X037443Y004466
X037443Y003466
X012068Y013216
X001693Y008216
X003693Y004216
X003693Y005216
X014068Y013216
X025318Y003966
X001693Y007216
X003693Y009216
X027193Y027216
X001693Y003216
X034693Y003466
X031193Y003466
X004693Y005216
X002693Y005216
X037443Y009716
X033693Y003466
X032193Y003466
X004693Y007216
X013068Y013216
X002693Y004216
X002693Y008216
X003693Y003216
X004693Y008216
X037443Y007716
X003693Y007216
X026318Y003966
X001693Y004216
X001693Y009216
X027193Y026216
X037443Y005466
X004693Y004216
X002693Y009216
T101
X001693Y036534
X031568Y035821
X012568Y025966
X021693Y032591
X015943Y026966
X019318Y027966
X029068Y034841
X019318Y026966
X015943Y025966
X009193Y027966
X012568Y026966
X010693Y036534
X002693Y033659
X031568Y032841
X008693Y033659
X009693Y033659
X010693Y033659
X008693Y036534
X029068Y033841
X003693Y036534
X009193Y026966
X009193Y025966
X015943Y027966
X019318Y025966
X003693Y033659
X024673Y032591
X029068Y035841
X002693Y036534
X012568Y027966
X009693Y036534
X001693Y033659
T102
X034060Y036022
X034060Y033069
T103
X029443Y024591
X028443Y024591
X029443Y029591
X030443Y029591
X034443Y029591
X025568Y035841
X035443Y024591
X035443Y029591
X034443Y024591
X033443Y024591
X028443Y029591
X031443Y024591
X025568Y033841
X032443Y029591
X033443Y029591
X030443Y024591
X032443Y024591
X031443Y029591
T104
X008818Y004091
X007818Y012091
X006071Y023835
X008818Y016091
X007818Y019091
X007818Y009091
X006071Y027835
X008818Y017091
X008818Y011091
X007818Y006091
X007818Y005091
X007818Y010091
X007818Y021091
X007818Y004091
X007818Y018091
X008818Y006091
X015943Y036841
X008818Y009091
X008818Y013091
X015943Y033841
X007818Y022091
X015943Y035841
X007818Y008091
X008818Y015091
X008818Y005091
X007818Y011091
X008818Y020091
X006071Y026835
X008818Y021091
X008818Y014091
X007818Y007091
X006071Y024835
X007818Y015091
X008818Y018091
X008818Y007091
X007818Y003091
X007818Y014091
X007818Y016091
X015943Y032841
X008818Y008091
X007818Y017091
X008818Y010091
X008818Y022091
X015943Y031841
X007818Y013091
X007818Y020091
X008818Y019091
X008818Y012091
X015943Y034841
X008818Y003091
X006071Y022834
X006071Y025835
T105
X019699Y002209
X019943Y003216
X022193Y013341
X011443Y007091
X017318Y014091
X015193Y020091
X033318Y019966
X035443Y032466
X017318Y023716
X032818Y015841
X023443Y025716
X020443Y007591
X017943Y008591
X006318Y010716
X028943Y025466
X037318Y011716
X000568Y037716
X015068Y003591
X029943Y032466
X011193Y012216
X030568Y007466
X031943Y026091
X017443Y003216
X011193Y003216
X013943Y023091
X023693Y015341
X003068Y019091
X020568Y004216
X002193Y010216
X018818Y011591
X014318Y003591
X018193Y032466
X014193Y035716
X005818Y029216
X015068Y036966
X007693Y032216
X020693Y024466
X020693Y015466
X022812Y007193
X027818Y011591
X006193Y012591
X008693Y029716
X005818Y006591
X007068Y028716
X035818Y012466
X034318Y010841
X000818Y013216
X012318Y018341
X033443Y023216
X026318Y014591
X022818Y004841
X030193Y019591
X036193Y008091
X000943Y031716
X021812Y008942
X000568Y022341
X023193Y013341
X015318Y007716
X022693Y014966
X028068Y006216
X013693Y034841
X023568Y006591
X012943Y004841
X008818Y023216
T106
X017818Y030591
X010218Y030591
X037818Y019591
X015818Y011591
X010818Y011591
X036818Y022591
X037818Y017591
X037818Y029591
X023818Y030591
X033818Y011591
X022818Y011591
X030818Y030591
X037818Y023591
X011218Y030591
X036818Y021591
X032818Y011591
X017818Y011591
X028818Y030591
X037818Y018591
X026818Y030591
X013218Y030591
X028818Y011591
X037818Y015591
X025818Y011591
X020818Y011591
X014818Y011591
X036818Y014591
X019818Y030591
X037818Y028591
X036818Y029591
X037818Y014591
X036818Y015591
X031818Y011591
X037818Y020591
X023818Y011591
X037818Y013591
X037818Y021591
X037818Y026591
X037818Y022591
X026818Y011591
X036818Y017591
X036818Y013591
X016218Y030591
X036818Y019591
X008218Y030591
X024818Y011591
X022818Y030591
X021818Y011591
X037818Y016591
X036818Y030591
X037818Y025591
X007218Y030591
X033818Y030591
X011818Y011591
X024818Y030591
X019818Y011591
X036818Y020591
X032818Y030591
X034818Y011591
X012818Y011591
X036818Y025591
X029818Y011591
X018818Y030591
X015218Y030591
X036818Y024591
X036818Y027591
X030818Y011591
X036818Y023591
X027818Y030591
X009218Y030591
X014218Y030591
X021818Y030591
X037818Y030591
X036818Y028591
X031818Y030591
X020818Y030591
X037818Y024591
X036818Y016591
X036818Y018591
X029818Y030591
X035818Y011591
X036818Y026591
X013818Y011591
X016818Y011591
X012218Y030591
X037818Y027591
T107
X031318Y009716
X032318Y006716
X033318Y009716
X033318Y006716
X032318Y009716
X031318Y006716
X034318Y006716
X034318Y009716
T108
X036560Y035519
X036560Y033519
T00
M30
