G04 MADE WITH FRITZING*
G04 WWW.FRITZING.ORG*
G04 DOUBLE SIDED*
G04 HOLES PLATED*
G04 CONTOUR ON CENTER OF CONTOUR VECTOR*
%ASAXBY*%
%FSLAX23Y23*%
%MOIN*%
%OFA0B0*%
%SFA1.0B1.0*%
%ADD10R,0.026000X0.080000*%
%ADD11R,0.086900X0.024000*%
%ADD12R,0.090086X0.113708*%
%ADD13R,0.023622X0.086614*%
%ADD14R,0.055118X0.059055*%
%ADD15R,0.047244X0.078740*%
%ADD16R,0.080000X0.026000*%
%ADD17R,0.059055X0.055118*%
%ADD18R,0.001000X0.001000*%
%LNPASTEMASK1*%
G90*
G70*
G54D10*
X2019Y1417D03*
X2069Y1417D03*
X2119Y1417D03*
X2169Y1417D03*
X2219Y1417D03*
X2269Y1417D03*
X2319Y1417D03*
X2369Y1417D03*
X2369Y1659D03*
X2319Y1659D03*
X2269Y1659D03*
X2219Y1659D03*
X2169Y1659D03*
X2119Y1659D03*
X2069Y1659D03*
X2019Y1659D03*
G54D11*
X3269Y2122D03*
X3269Y2172D03*
X3269Y2222D03*
X3269Y2272D03*
X3004Y2272D03*
X3004Y2222D03*
X3004Y2172D03*
X3004Y2122D03*
X3269Y1734D03*
X3269Y1784D03*
X3269Y1834D03*
X3269Y1884D03*
X3004Y1884D03*
X3004Y1834D03*
X3004Y1784D03*
X3004Y1734D03*
G54D12*
X569Y1472D03*
X400Y1472D03*
X569Y1609D03*
X400Y1609D03*
X569Y1747D03*
X400Y1747D03*
X569Y1884D03*
X400Y1884D03*
G54D13*
X369Y2434D03*
X369Y2797D03*
X319Y2434D03*
X419Y2434D03*
X469Y2434D03*
X319Y2797D03*
X419Y2797D03*
X469Y2797D03*
G54D14*
X57Y1472D03*
X138Y1472D03*
X57Y1609D03*
X138Y1609D03*
X57Y1747D03*
X138Y1747D03*
X57Y1884D03*
X138Y1884D03*
X1575Y1784D03*
X1656Y1784D03*
X1575Y1884D03*
X1656Y1884D03*
X1575Y2072D03*
X1656Y2072D03*
X1575Y2172D03*
X1656Y2172D03*
X307Y1472D03*
X226Y1472D03*
X307Y1609D03*
X226Y1609D03*
X307Y1747D03*
X226Y1747D03*
X307Y1884D03*
X226Y1884D03*
X1388Y1784D03*
X1468Y1784D03*
X1388Y1884D03*
X1468Y1884D03*
X1388Y2072D03*
X1468Y2072D03*
X1388Y2172D03*
X1468Y2172D03*
G54D15*
X3269Y3559D03*
X3269Y3669D03*
G54D16*
X1449Y159D03*
X1449Y209D03*
X1449Y259D03*
X1449Y309D03*
X1449Y359D03*
X1449Y409D03*
X1449Y459D03*
X1449Y509D03*
X1207Y509D03*
X1207Y459D03*
X1207Y409D03*
X1207Y359D03*
X1207Y309D03*
X1207Y259D03*
X1207Y209D03*
X1207Y159D03*
G54D17*
X1869Y515D03*
X1869Y434D03*
G54D14*
X550Y1222D03*
X469Y1222D03*
X2282Y2922D03*
X2363Y2922D03*
G54D17*
X3269Y3316D03*
X3269Y3397D03*
X2732Y3216D03*
X2732Y3297D03*
G54D14*
X469Y1322D03*
X550Y1322D03*
X282Y1322D03*
X201Y1322D03*
G54D17*
X1344Y3291D03*
X1344Y3372D03*
X1244Y3578D03*
X1244Y3659D03*
X1344Y3578D03*
X1344Y3659D03*
X1244Y3291D03*
X1244Y3372D03*
X657Y3578D03*
X657Y3659D03*
X544Y3578D03*
X544Y3659D03*
X657Y3291D03*
X657Y3372D03*
X544Y3291D03*
X544Y3372D03*
G54D14*
X3525Y2247D03*
X3444Y2247D03*
X3525Y1972D03*
X3444Y1972D03*
X3525Y2059D03*
X3444Y2059D03*
X3525Y2159D03*
X3444Y2159D03*
X2757Y2322D03*
X2838Y2322D03*
X3525Y1372D03*
X3444Y1372D03*
X3525Y1459D03*
X3444Y1459D03*
X3525Y1559D03*
X3444Y1559D03*
X3525Y1647D03*
X3444Y1647D03*
G54D17*
X1107Y2603D03*
X1107Y2684D03*
X1444Y2603D03*
X1444Y2684D03*
X1782Y2603D03*
X1782Y2684D03*
X2119Y2603D03*
X2119Y2684D03*
X1107Y2877D03*
X1107Y2797D03*
X1444Y2877D03*
X1444Y2797D03*
X1782Y2877D03*
X1782Y2797D03*
X2119Y2877D03*
X2119Y2797D03*
G54D14*
X1757Y2072D03*
X1838Y2072D03*
X1838Y2172D03*
X1757Y2172D03*
X1482Y859D03*
X1401Y859D03*
X2357Y784D03*
X2276Y784D03*
X282Y1222D03*
X201Y1222D03*
X2994Y1659D03*
X3075Y1659D03*
G54D17*
X2769Y1334D03*
X2769Y1253D03*
X2082Y953D03*
X2082Y1034D03*
X1207Y1447D03*
X1207Y1527D03*
X1082Y1409D03*
X1082Y1328D03*
G54D14*
X2363Y2822D03*
X2282Y2822D03*
G54D17*
X1982Y953D03*
X1982Y1034D03*
G54D14*
X1701Y859D03*
X1782Y859D03*
G54D17*
X1782Y1034D03*
X1782Y953D03*
G54D14*
X3044Y1255D03*
X2964Y1255D03*
G54D17*
X2482Y1253D03*
X2482Y1334D03*
G54D14*
X3625Y972D03*
X3544Y972D03*
X3289Y534D03*
X3369Y534D03*
X3200Y534D03*
X3119Y534D03*
X3625Y547D03*
X3544Y547D03*
G54D17*
X2982Y702D03*
X2982Y622D03*
G54D14*
X2594Y522D03*
X2675Y522D03*
X2494Y659D03*
X2575Y659D03*
G54D17*
X2982Y953D03*
X2982Y1034D03*
G54D14*
X2594Y397D03*
X2675Y397D03*
G54D17*
X2869Y623D03*
X2869Y703D03*
G54D14*
X1569Y759D03*
X1489Y759D03*
G54D17*
X1882Y953D03*
X1882Y1034D03*
X2182Y953D03*
X2182Y1034D03*
X1407Y1447D03*
X1407Y1527D03*
X2882Y953D03*
X2882Y1034D03*
X2682Y953D03*
X2682Y1034D03*
X2582Y953D03*
X2582Y1034D03*
X2782Y953D03*
X2782Y1034D03*
X2482Y953D03*
X2482Y1034D03*
X2282Y953D03*
X2282Y1034D03*
X2382Y953D03*
X2382Y1034D03*
G54D14*
X1757Y1784D03*
X1838Y1784D03*
X1838Y1884D03*
X1757Y1884D03*
X2669Y1255D03*
X2589Y1255D03*
G54D17*
X2869Y1253D03*
X2869Y1334D03*
G54D18*
D02*
G04 End of PasteMask1*
M02*