; NON-PLATED HOLES START AT T1
; THROUGH (PLATED) HOLES START AT T100
M48
INCH
T100C0.042000
T101C0.040000
T102C0.035000
T103C0.059055
T104C0.015748
T105C0.031496
T106C0.030000
T107C0.038194
T108C0.038000
%
T100
X009193Y027966
X031568Y035821
X012568Y025966
X003693Y036534
X003693Y033659
X012568Y026966
X008693Y033659
X002693Y033659
X009693Y036534
X025568Y036841
X010693Y033659
X029568Y034841
X001693Y033659
X009693Y033659
X002693Y036534
X019318Y025966
X010693Y036534
X015943Y025966
X019318Y026966
X029568Y035841
X015943Y027966
X031568Y032841
X025568Y033861
X008693Y036534
X009193Y025966
X029568Y033841
X009193Y026966
X001693Y036534
X015943Y026966
X019318Y027966
X012568Y027966
T101
X007818Y015091
X008818Y016091
X007818Y003091
X008818Y019091
X015943Y032841
X015943Y034841
X007818Y013091
X008818Y003091
X007818Y006091
X008818Y008091
X008818Y022091
X007818Y005091
X007818Y020091
X007818Y010091
X008818Y011091
X008818Y007091
X007818Y011091
X008818Y012091
X008818Y004091
X007818Y019091
X008818Y018091
X008818Y006091
X007818Y022091
X007818Y016091
X008818Y017091
X008818Y013091
X007818Y021091
X015943Y036841
X015943Y035841
X007818Y012091
X008818Y015091
X008818Y014091
X008818Y020091
X007818Y007091
X008818Y021091
X007818Y017091
X015943Y033841
X007818Y009091
X007818Y018091
X008818Y005091
X008818Y010091
X007818Y014091
X015943Y031841
X008818Y009091
X007818Y004091
X007818Y008091
T102
X034318Y006716
X031318Y006716
X033318Y009716
X034318Y009716
X033318Y006716
X032318Y009716
X032318Y006716
X031318Y009716
T103
X036568Y035902
X036568Y033902
T104
X022693Y014966
X030568Y007466
X005693Y030591
X007693Y032216
X005693Y029841
X015443Y001591
X032818Y015841
X017943Y007841
X001568Y029841
X001064Y030589
X037318Y011716
X021818Y024716
X022193Y013341
X023193Y013341
X015193Y020091
X006193Y012591
X024818Y007841
X026318Y014591
X023693Y015341
X002068Y029216
X008443Y023341
X035818Y032466
X013943Y023091
X018818Y011591
X031943Y026091
X028693Y032341
X012318Y007591
X033318Y019966
X033443Y023216
X011318Y002591
X013943Y006966
X000818Y007091
X020693Y015466
X000568Y037716
X017443Y032341
X014193Y035716
X035318Y010841
X005691Y029215
X016318Y012966
X030193Y019591
X006318Y026341
X013693Y034841
X020693Y024466
X027818Y011591
X028943Y025466
X009443Y029591
X011193Y012216
X017818Y002966
X013443Y002716
X019693Y002966
X010443Y004966
X020318Y007716
X036193Y008091
X037943Y034841
X012318Y018341
X016193Y003091
X005568Y011091
X021693Y019841
X017318Y023716
T105
X034068Y036405
X034068Y033452
T106
X028443Y029591
X028443Y024591
X027318Y034591
X031443Y029591
X032443Y029591
X027318Y036591
X029443Y029591
X030443Y024591
X035443Y029591
X029443Y024591
X034443Y024591
X035443Y024591
X032443Y024591
X030443Y029591
X034443Y029591
X033443Y024591
X033443Y029591
X031443Y024591
T107
X017818Y030591
X028818Y011591
X037818Y022591
X036818Y017591
X036818Y029591
X019818Y030591
X036818Y023591
X036818Y014591
X025818Y011591
X037818Y029591
X032818Y030591
X036818Y024591
X036818Y028591
X009218Y030591
X037818Y025591
X037818Y020591
X031818Y011591
X023818Y011591
X019818Y011591
X020818Y030591
X022818Y011591
X035818Y011591
X034818Y011591
X037818Y015591
X010218Y030591
X036818Y021591
X036818Y013591
X012818Y011591
X020818Y011591
X022818Y030591
X033818Y011591
X037818Y016591
X036818Y030591
X030818Y011591
X024818Y030591
X015218Y030591
X037818Y017591
X036818Y016591
X021818Y030591
X037818Y028591
X037818Y013591
X027818Y030591
X037818Y014591
X037818Y024591
X026818Y011591
X016818Y011591
X036818Y025591
X017818Y011591
X026818Y030591
X037818Y019591
X023818Y030591
X036818Y015591
X024818Y011591
X010818Y011591
X014218Y030591
X033818Y030591
X036818Y020591
X013818Y011591
X032818Y011591
X008218Y030591
X037818Y023591
X007218Y030591
X011218Y030591
X036818Y018591
X016218Y030591
X015818Y011591
X028818Y030591
X029818Y011591
X029818Y030591
X037818Y018591
X012218Y030591
X014818Y011591
X037818Y026591
X037818Y027591
X037818Y021591
X018818Y030591
X036818Y019591
X013218Y030591
X021818Y011591
X031818Y030591
X036818Y027591
X037818Y030591
X036818Y022591
X036818Y026591
X030818Y030591
X011818Y011591
T108
X001693Y007216
X003693Y005216
X003693Y007216
X034693Y004216
X003693Y003216
X003693Y010216
X004693Y005216
X005693Y002216
X037443Y003466
X037443Y004466
X005693Y006216
X003693Y006216
X027193Y026216
X001693Y004216
X004693Y006216
X001693Y008216
X002693Y006216
X005693Y009216
X005693Y004216
X001693Y006216
X001693Y002216
X002693Y010216
X002693Y004216
X002693Y005216
X001693Y010216
X005693Y007216
X004693Y008216
X002693Y009216
X001693Y005216
X004693Y002216
X032193Y004216
X004693Y007216
X027193Y027216
X004693Y003216
X033693Y004216
X002693Y002216
X003693Y004216
X026818Y007591
X002693Y007216
X005693Y008216
X003693Y002216
X027193Y028216
X003693Y008216
X005693Y005216
X004693Y009216
X004693Y004216
X001693Y003216
X037443Y007716
X037443Y009716
X012068Y013216
X037443Y008716
X037443Y005466
X001693Y009216
X031193Y004216
X003693Y009216
X025818Y007591
X002693Y008216
X002693Y003216
X014068Y013216
X013068Y013216
X005693Y003216
T00
M30
