; NON-PLATED HOLES START AT T1
; THROUGH (PLATED) HOLES START AT T100
M48
INCH
T1C0.177165
T100C0.042000
T101C0.035000
T102C0.038194
T103C0.037722
T104C0.059055
T105C0.040000
T106C0.015748
T107C0.031496
T108C0.037750
T109C0.037694
T110C0.038000
%
T1
X001318Y029948
X001318Y020948
T100
X003693Y033766
X017568Y026823
X008693Y036641
X001693Y036641
X010693Y033766
X001693Y033766
X021193Y036198
X024173Y036198
X014193Y027823
X014193Y028823
X002693Y033766
X010818Y027823
X010818Y026823
X010818Y028823
X010693Y036641
X003693Y036641
X002693Y036641
X017568Y028823
X020943Y027823
X009693Y033766
X017568Y027823
X014193Y026823
X008693Y033766
X009693Y036641
X020943Y028823
X020943Y026823
T101
X033318Y006823
X011818Y007823
X034318Y006823
X032318Y009823
X011818Y009073
X015818Y007823
X032318Y006823
X033318Y009823
X031318Y006823
X034318Y009823
X031318Y009823
X015818Y009073
T102
X024818Y030698
X031818Y030698
X028818Y011698
X036818Y024698
X030818Y011698
X034818Y011698
X032818Y011698
X019818Y030698
X036818Y023698
X033818Y011698
X031818Y011698
X021818Y011698
X037818Y022698
X036818Y029698
X024818Y011698
X022818Y011698
X037818Y025698
X029818Y030698
X012218Y030698
X018818Y030698
X036818Y026698
X019818Y011698
X037818Y023698
X036818Y014698
X025818Y011698
X015818Y011698
X023818Y030698
X009218Y030698
X036818Y016698
X027818Y030698
X036818Y017698
X037818Y028698
X037818Y017698
X020818Y011698
X036818Y019698
X037818Y015698
X037818Y014698
X032818Y030698
X016818Y011698
X037818Y018698
X030818Y030698
X029818Y011698
X037818Y030698
X017818Y030698
X036818Y015698
X022818Y030698
X037818Y019698
X033818Y030698
X008218Y030698
X010218Y030698
X036818Y030698
X036818Y022698
X037818Y013698
X023818Y011698
X037818Y016698
X007218Y030698
X016218Y030698
X036818Y027698
X036818Y020698
X037818Y024698
X011218Y030698
X037818Y020698
X036818Y028698
X036818Y018698
X035818Y011698
X026818Y011698
X011818Y011698
X021818Y030698
X037818Y026698
X017818Y011698
X014218Y030698
X020818Y030698
X037818Y021698
X012818Y011698
X036818Y025698
X037818Y029698
X014818Y011698
X013218Y030698
X010818Y011698
X036818Y021698
X015218Y030698
X036818Y013698
X037818Y027698
X013818Y011698
X026818Y030698
X028818Y030698
T103
X030443Y029823
X033443Y024823
X029443Y029823
X035443Y024823
X031443Y024823
T104
X037568Y035573
X037568Y033573
T105
X008943Y006698
X007943Y007698
X007943Y004698
X017068Y034948
X006071Y027942
X007943Y009698
X008943Y008698
X008943Y007698
X007943Y015698
X008943Y017698
X013193Y004823
X006071Y023942
X007943Y018698
X007943Y012698
X007943Y017698
X014193Y003823
X015193Y004823
X008943Y011698
X007943Y006698
X008943Y005698
X008943Y013698
X008943Y021698
X007943Y013698
X013193Y003823
X017068Y036948
X008943Y012698
X007943Y005698
X008943Y015698
X017068Y031948
X008943Y016698
X016193Y003823
X007943Y020698
X008943Y010698
X006071Y026942
X008943Y020698
X007943Y008698
X007943Y016698
X008943Y018698
X008943Y004698
X006071Y025942
X007943Y023698
X016193Y004823
X008943Y019698
X008943Y009698
X017068Y035948
X015193Y003823
X007943Y010698
X017068Y032948
X007943Y014698
X017068Y033948
X006071Y024942
X007943Y022698
X007943Y019698
X007943Y011698
X014193Y004823
X008943Y023698
X008943Y022698
X008943Y014698
X006071Y022941
X007943Y021698
T106
X002318Y018323
X020193Y015198
X025693Y033448
X008943Y028948
X022193Y013073
X006068Y019073
X026193Y014073
X033443Y023323
X026193Y003573
X037318Y011698
X023693Y015573
X027818Y011698
X028818Y036948
X029693Y019823
X020443Y002823
X017568Y021323
X011943Y001698
X027068Y005573
X023943Y003573
X020697Y004068
X024315Y005576
X024568Y002573
X023818Y033448
X011818Y034948
X017318Y013323
X008943Y027323
X028943Y025573
X021818Y003573
X022443Y007323
X018441Y004075
X014193Y035823
X023193Y013073
X027818Y003323
X018193Y007198
X017318Y015073
X013318Y019698
X030568Y007573
X019068Y036448
X011318Y012323
X023193Y015573
X010068Y007823
X030943Y033448
X033318Y020073
X026066Y031572
X002318Y027698
X005318Y016073
X000943Y031823
X033318Y010948
X005068Y010323
X028068Y006323
X022318Y031698
X026193Y004573
X021193Y003573
X012693Y023323
X019443Y024573
X012818Y015573
X034693Y012573
X032818Y014448
X016068Y023948
X026199Y002566
X014443Y019198
X032818Y015948
X020693Y015573
X035193Y012948
X020568Y007698
X008443Y003448
X018818Y011698
X031943Y026198
T107
X034943Y033073
X034943Y036025
T108
X032443Y024823
X034443Y029823
X028443Y029823
X033443Y029823
X031443Y029823
X032443Y029823
X028443Y024823
X035443Y029823
T109
X030443Y024823
X029443Y024823
X034443Y024823
T110
X033693Y004323
X013818Y013198
X036318Y008573
X034693Y004323
X027193Y027323
X001943Y007323
X003943Y004323
X001943Y009323
X036318Y005323
X003943Y006323
X002943Y007323
X004943Y007323
X036318Y007573
X027193Y026323
X005943Y005323
X005943Y006323
X012818Y013198
X002943Y008323
X032193Y004323
X002943Y009323
X001943Y003323
X002943Y006323
X003943Y009323
X004943Y009323
X036318Y009573
X002943Y005323
X005943Y008323
X020568Y032448
X001943Y008323
X005943Y004323
X002943Y003323
X031193Y004323
X027193Y028323
X001943Y005323
X003943Y005323
X005943Y003323
X002943Y004323
X036318Y006323
X036318Y004323
X003943Y008323
X004943Y005323
X003943Y007323
X001943Y006323
X005943Y009323
X005943Y007323
X003943Y003323
X004943Y008323
X019568Y032448
X004943Y003323
X004943Y004323
X004943Y006323
X001943Y004323
T00
M30
