; NON-PLATED HOLES START AT T1
; THROUGH (PLATED) HOLES START AT T100
M48
INCH
T1C0.177165
T100C0.038000
T101C0.015748
T102C0.031496
T103C0.038194
T104C0.035000
T105C0.059055
T106C0.030000
T107C0.042000
T108C0.040000
%
T1
X001318Y029756
X001318Y020756
T100
X022318Y032256
X016318Y036256
X022318Y035256
X020318Y032256
X018318Y036256
X023318Y035256
X019318Y034256
X037443Y009256
X019318Y032256
X037443Y003131
X020318Y034256
X022318Y033256
X031568Y003506
X037443Y005131
X014818Y009006
X034318Y003506
X023318Y034256
X027193Y026131
X018318Y032256
X016318Y034256
X020318Y036256
X037443Y008256
X037443Y004131
X023318Y033256
X017318Y034256
X013818Y009006
X019318Y033256
X023318Y036256
X020318Y033256
X021318Y035256
X016318Y035256
X022318Y036256
X017318Y035256
X033318Y003506
X027193Y027131
X018318Y033256
X022318Y034256
X019318Y035256
X021318Y036256
X020318Y035256
X018318Y035256
X021318Y032256
X017318Y032256
X023318Y032256
X017318Y033256
X030568Y003506
X021318Y034256
X027193Y028131
X016318Y032256
X037443Y007256
X017318Y036256
X021318Y033256
X018318Y034256
X019318Y036256
X016318Y033256
T101
X014943Y006506
X013693Y034756
X000818Y025506
X025943Y024256
X016193Y008756
X027818Y011506
X017318Y023631
X026068Y032756
X026943Y016256
X037568Y011256
X024818Y034506
X023318Y007381
X031943Y015131
X035818Y012381
X005818Y011006
X028068Y018506
X008443Y023256
X028568Y019131
X035943Y006756
X034318Y010131
X028943Y025381
X034818Y018631
X005193Y013631
X020693Y024381
X004318Y016256
X019818Y003881
X020318Y007381
X012818Y022006
X000818Y031756
X013568Y003881
X007693Y032131
X001318Y009006
X012943Y013256
X029068Y019756
X031943Y026006
X035318Y010756
X021443Y021006
X030568Y006756
X018818Y011506
X027568Y017881
X036068Y034506
X021443Y023006
X018693Y008131
X029943Y009131
X021568Y015131
X026943Y014381
X014443Y004506
X001568Y008006
X017068Y015631
X008318Y029381
X002818Y003006
X014193Y035631
X028193Y032256
X013943Y022881
T102
X034943Y033053
X034943Y036006
T103
X009218Y030506
X018818Y030506
X012218Y030506
X036818Y026506
X010818Y011506
X037818Y029506
X036818Y028506
X036818Y027506
X030818Y011506
X024818Y011506
X029818Y011506
X020818Y030506
X013818Y011506
X036818Y024506
X015818Y011506
X029818Y030506
X019818Y030506
X023818Y011506
X028818Y011506
X037818Y015506
X034818Y011506
X008218Y030506
X021818Y011506
X011218Y030506
X036818Y014506
X017818Y030506
X025818Y011506
X037818Y026506
X036818Y019506
X033818Y030506
X019818Y011506
X037818Y013506
X010218Y030506
X037818Y019506
X036818Y020506
X030818Y030506
X012818Y011506
X037818Y025506
X022818Y011506
X037818Y018506
X007218Y030506
X037818Y017506
X036818Y018506
X017818Y011506
X036818Y017506
X015218Y030506
X032818Y011506
X037818Y023506
X026818Y030506
X036818Y016506
X024818Y030506
X037818Y016506
X026818Y011506
X020818Y011506
X036818Y022506
X037818Y021506
X036818Y023506
X037818Y020506
X021818Y030506
X037818Y014506
X022818Y030506
X036818Y021506
X016218Y030506
X023818Y030506
X031818Y030506
X037818Y024506
X037818Y027506
X036818Y029506
X037818Y028506
X028818Y030506
X014818Y011506
X037818Y022506
X013218Y030506
X035818Y011506
X036818Y025506
X037818Y030506
X011818Y011506
X031818Y011506
X036818Y030506
X033818Y011506
X016818Y011506
X036818Y013506
X014218Y030506
X032818Y030506
X027818Y030506
X036818Y015506
T104
X031318Y008881
X030068Y017256
X015443Y016256
X031318Y005881
X034318Y008881
X033068Y017256
X033068Y015256
X015443Y015256
X033068Y021006
X018443Y013256
X015443Y013256
X018443Y014256
X018443Y016256
X015443Y014256
X030068Y023006
X018443Y015256
X033068Y023006
X033068Y016256
X030068Y022006
X030068Y021006
X033318Y005881
X033318Y008881
X033068Y020006
X032318Y005881
X030068Y020006
X034318Y005881
X030068Y015256
X030068Y014256
X030068Y016256
X033068Y014256
X033068Y022006
X032318Y008881
T105
X037443Y035506
X037443Y033506
T106
X028693Y034381
X029443Y024506
X028693Y036381
X032443Y024506
X030443Y029506
X032443Y029506
X034443Y024506
X034443Y029506
X031443Y024506
X029443Y029506
X035443Y024506
X035443Y029506
X033443Y024506
X033443Y029506
X030443Y024506
X028443Y024506
X031443Y029506
X028443Y029506
T107
X012568Y026881
X012568Y025881
X019318Y026881
X010693Y033574
X009193Y027881
X033693Y035986
X009693Y036449
X001693Y033574
X003693Y036449
X003693Y033574
X026068Y036631
X008693Y033574
X012568Y027881
X019318Y027881
X029818Y032756
X010693Y036449
X002693Y036449
X019318Y025881
X009693Y033574
X033693Y033006
X026068Y033651
X009193Y025881
X015943Y026881
X030818Y032756
X031818Y032756
X015943Y027881
X009193Y026881
X008693Y036449
X001693Y036449
X002693Y033574
X015943Y025881
T108
X008818Y009006
X008818Y014006
X006068Y026756
X008818Y011006
X006068Y025756
X006068Y024756
X007818Y010006
X007818Y016006
X008818Y008006
X006068Y023756
X008818Y013006
X007818Y008006
X007818Y013006
X008818Y012006
X007818Y009006
X008818Y017006
X007818Y014006
X007818Y017006
X007818Y012006
X006068Y022755
X007818Y005006
X008818Y019006
X007818Y004006
X007818Y006006
X007818Y019006
X008818Y003006
X008818Y010006
X006068Y027756
X007818Y022006
X007818Y003006
X008818Y020006
X007818Y007006
X008818Y005006
X008818Y006006
X008818Y021006
X008818Y007006
X008818Y022006
X007818Y020006
X008818Y018006
X007818Y011006
X008818Y004006
X007818Y015006
X007818Y018006
X008818Y016006
X008818Y015006
X007818Y021006
T00
M30
