G04 MADE WITH FRITZING*
G04 WWW.FRITZING.ORG*
G04 DOUBLE SIDED*
G04 HOLES PLATED*
G04 CONTOUR ON CENTER OF CONTOUR VECTOR*
%ASAXBY*%
%FSLAX23Y23*%
%MOIN*%
%OFA0B0*%
%SFA1.0B1.0*%
%ADD10C,0.049370*%
%ADD11C,0.096603*%
%ADD12C,0.175354*%
%ADD13C,0.084000*%
%ADD14C,0.089370*%
%ADD15R,0.084000X0.084000*%
%ADD16R,0.089370X0.089370*%
%ADD17R,0.001000X0.001000*%
%LNMASK1*%
G90*
G70*
G54D10*
X1061Y2185D03*
X1634Y1887D03*
X196Y1624D03*
G54D11*
X805Y2873D03*
X805Y2735D03*
X805Y2598D03*
X805Y2499D03*
X805Y2381D03*
X805Y2283D03*
X805Y2184D03*
X805Y2086D03*
X805Y1712D03*
X805Y1574D03*
X805Y1436D03*
X805Y1338D03*
X805Y1220D03*
X805Y1121D03*
X805Y1023D03*
X805Y924D03*
X679Y3011D03*
X679Y2873D03*
X679Y2735D03*
X679Y2598D03*
X679Y2499D03*
X679Y2381D03*
X679Y2283D03*
X679Y2184D03*
X679Y2086D03*
X679Y1850D03*
X679Y1712D03*
X679Y1574D03*
X679Y1436D03*
X679Y1338D03*
X679Y1220D03*
X679Y1121D03*
X679Y1023D03*
X679Y924D03*
X561Y3011D03*
X561Y2873D03*
X561Y2735D03*
X561Y2283D03*
X561Y2184D03*
X561Y2086D03*
X561Y1850D03*
X561Y1712D03*
X561Y1574D03*
X561Y1121D03*
X561Y1023D03*
X561Y924D03*
X805Y1850D03*
X805Y3011D03*
G54D12*
X317Y3259D03*
X317Y676D03*
G54D13*
X1396Y724D03*
X1396Y624D03*
X1396Y524D03*
X1396Y424D03*
X1296Y724D03*
X1296Y624D03*
X1296Y524D03*
X1296Y424D03*
X1396Y3087D03*
X1396Y2987D03*
X1396Y2887D03*
X1396Y2787D03*
X1396Y2687D03*
X1396Y2587D03*
X1396Y2487D03*
X1396Y2387D03*
X1396Y2287D03*
X1396Y2187D03*
X1396Y2087D03*
X1396Y1987D03*
X1396Y1887D03*
X1396Y1787D03*
X1396Y1687D03*
X1396Y1587D03*
X1396Y1487D03*
X1396Y1387D03*
X1396Y1287D03*
X1396Y1187D03*
X1296Y3087D03*
X1296Y2987D03*
X1296Y2887D03*
X1296Y2787D03*
X1296Y2687D03*
X1296Y2587D03*
X1296Y2487D03*
X1296Y2387D03*
X1296Y2287D03*
X1296Y2187D03*
X1296Y2087D03*
X1296Y1987D03*
X1296Y1887D03*
X1296Y1787D03*
X1296Y1687D03*
X1296Y1587D03*
X1296Y1487D03*
X1296Y1387D03*
X1296Y1287D03*
X1296Y1187D03*
G54D14*
X1396Y3650D03*
X1396Y3512D03*
G54D10*
X1061Y2285D03*
G54D15*
X1296Y724D03*
X1296Y3087D03*
G54D16*
X1396Y3650D03*
G54D17*
X757Y2134D02*
X852Y2134D01*
X757Y2133D02*
X852Y2133D01*
X757Y2132D02*
X852Y2132D01*
X757Y2131D02*
X852Y2131D01*
X757Y2130D02*
X852Y2130D01*
X757Y2129D02*
X852Y2129D01*
X757Y2128D02*
X852Y2128D01*
X757Y2127D02*
X852Y2127D01*
X757Y2126D02*
X852Y2126D01*
X757Y2125D02*
X852Y2125D01*
X757Y2124D02*
X852Y2124D01*
X757Y2123D02*
X852Y2123D01*
X757Y2122D02*
X852Y2122D01*
X757Y2121D02*
X852Y2121D01*
X757Y2120D02*
X852Y2120D01*
X757Y2119D02*
X852Y2119D01*
X757Y2118D02*
X852Y2118D01*
X757Y2117D02*
X852Y2117D01*
X757Y2116D02*
X852Y2116D01*
X757Y2115D02*
X852Y2115D01*
X757Y2114D02*
X852Y2114D01*
X757Y2113D02*
X852Y2113D01*
X757Y2112D02*
X852Y2112D01*
X757Y2111D02*
X852Y2111D01*
X757Y2110D02*
X852Y2110D01*
X757Y2109D02*
X852Y2109D01*
X757Y2108D02*
X852Y2108D01*
X757Y2107D02*
X852Y2107D01*
X757Y2106D02*
X852Y2106D01*
X757Y2105D02*
X852Y2105D01*
X757Y2104D02*
X800Y2104D01*
X809Y2104D02*
X852Y2104D01*
X757Y2103D02*
X797Y2103D01*
X812Y2103D02*
X852Y2103D01*
X757Y2102D02*
X795Y2102D01*
X814Y2102D02*
X852Y2102D01*
X757Y2101D02*
X793Y2101D01*
X816Y2101D02*
X852Y2101D01*
X757Y2100D02*
X792Y2100D01*
X817Y2100D02*
X852Y2100D01*
X757Y2099D02*
X791Y2099D01*
X818Y2099D02*
X852Y2099D01*
X757Y2098D02*
X790Y2098D01*
X819Y2098D02*
X852Y2098D01*
X757Y2097D02*
X789Y2097D01*
X820Y2097D02*
X852Y2097D01*
X757Y2096D02*
X788Y2096D01*
X820Y2096D02*
X852Y2096D01*
X757Y2095D02*
X788Y2095D01*
X821Y2095D02*
X852Y2095D01*
X757Y2094D02*
X787Y2094D01*
X821Y2094D02*
X852Y2094D01*
X757Y2093D02*
X787Y2093D01*
X822Y2093D02*
X852Y2093D01*
X757Y2092D02*
X787Y2092D01*
X822Y2092D02*
X852Y2092D01*
X757Y2091D02*
X786Y2091D01*
X823Y2091D02*
X852Y2091D01*
X757Y2090D02*
X786Y2090D01*
X823Y2090D02*
X852Y2090D01*
X757Y2089D02*
X786Y2089D01*
X823Y2089D02*
X852Y2089D01*
X757Y2088D02*
X786Y2088D01*
X823Y2088D02*
X852Y2088D01*
X757Y2087D02*
X786Y2087D01*
X823Y2087D02*
X852Y2087D01*
X757Y2086D02*
X786Y2086D01*
X823Y2086D02*
X852Y2086D01*
X757Y2085D02*
X786Y2085D01*
X823Y2085D02*
X852Y2085D01*
X757Y2084D02*
X786Y2084D01*
X823Y2084D02*
X852Y2084D01*
X757Y2083D02*
X786Y2083D01*
X823Y2083D02*
X852Y2083D01*
X757Y2082D02*
X786Y2082D01*
X823Y2082D02*
X852Y2082D01*
X757Y2081D02*
X786Y2081D01*
X822Y2081D02*
X852Y2081D01*
X757Y2080D02*
X787Y2080D01*
X822Y2080D02*
X852Y2080D01*
X757Y2079D02*
X787Y2079D01*
X822Y2079D02*
X852Y2079D01*
X757Y2078D02*
X788Y2078D01*
X821Y2078D02*
X852Y2078D01*
X757Y2077D02*
X788Y2077D01*
X821Y2077D02*
X852Y2077D01*
X757Y2076D02*
X789Y2076D01*
X820Y2076D02*
X852Y2076D01*
X757Y2075D02*
X790Y2075D01*
X819Y2075D02*
X852Y2075D01*
X757Y2074D02*
X790Y2074D01*
X818Y2074D02*
X852Y2074D01*
X757Y2073D02*
X791Y2073D01*
X817Y2073D02*
X852Y2073D01*
X757Y2072D02*
X793Y2072D01*
X816Y2072D02*
X852Y2072D01*
X757Y2071D02*
X794Y2071D01*
X815Y2071D02*
X852Y2071D01*
X757Y2070D02*
X796Y2070D01*
X813Y2070D02*
X852Y2070D01*
X757Y2069D02*
X798Y2069D01*
X811Y2069D02*
X852Y2069D01*
X757Y2068D02*
X852Y2068D01*
X757Y2067D02*
X852Y2067D01*
X757Y2066D02*
X852Y2066D01*
X757Y2065D02*
X852Y2065D01*
X757Y2064D02*
X852Y2064D01*
X757Y2063D02*
X852Y2063D01*
X757Y2062D02*
X852Y2062D01*
X757Y2061D02*
X852Y2061D01*
X757Y2060D02*
X852Y2060D01*
X757Y2059D02*
X852Y2059D01*
X757Y2058D02*
X852Y2058D01*
X757Y2057D02*
X852Y2057D01*
X757Y2056D02*
X852Y2056D01*
X757Y2055D02*
X852Y2055D01*
X757Y2054D02*
X852Y2054D01*
X757Y2053D02*
X852Y2053D01*
X757Y2052D02*
X852Y2052D01*
X757Y2051D02*
X852Y2051D01*
X757Y2050D02*
X852Y2050D01*
X757Y2049D02*
X852Y2049D01*
X757Y2048D02*
X852Y2048D01*
X757Y2047D02*
X852Y2047D01*
X757Y2046D02*
X852Y2046D01*
X757Y2045D02*
X852Y2045D01*
X757Y2044D02*
X852Y2044D01*
X757Y2043D02*
X852Y2043D01*
X757Y2042D02*
X852Y2042D01*
X757Y2041D02*
X852Y2041D01*
X757Y2040D02*
X852Y2040D01*
X757Y2039D02*
X852Y2039D01*
X757Y2038D02*
X852Y2038D01*
X757Y973D02*
X852Y973D01*
X757Y972D02*
X852Y972D01*
X757Y971D02*
X852Y971D01*
X757Y970D02*
X852Y970D01*
X757Y969D02*
X852Y969D01*
X757Y968D02*
X852Y968D01*
X757Y967D02*
X852Y967D01*
X757Y966D02*
X852Y966D01*
X757Y965D02*
X852Y965D01*
X757Y964D02*
X852Y964D01*
X757Y963D02*
X852Y963D01*
X757Y962D02*
X852Y962D01*
X757Y961D02*
X852Y961D01*
X757Y960D02*
X852Y960D01*
X757Y959D02*
X852Y959D01*
X757Y958D02*
X852Y958D01*
X757Y957D02*
X852Y957D01*
X757Y956D02*
X852Y956D01*
X757Y955D02*
X852Y955D01*
X757Y954D02*
X852Y954D01*
X757Y953D02*
X852Y953D01*
X757Y952D02*
X852Y952D01*
X757Y951D02*
X852Y951D01*
X757Y950D02*
X852Y950D01*
X757Y949D02*
X852Y949D01*
X757Y948D02*
X852Y948D01*
X757Y947D02*
X852Y947D01*
X757Y946D02*
X852Y946D01*
X757Y945D02*
X852Y945D01*
X757Y944D02*
X852Y944D01*
X757Y943D02*
X802Y943D01*
X807Y943D02*
X852Y943D01*
X757Y942D02*
X797Y942D01*
X811Y942D02*
X852Y942D01*
X757Y941D02*
X795Y941D01*
X814Y941D02*
X852Y941D01*
X757Y940D02*
X794Y940D01*
X815Y940D02*
X852Y940D01*
X757Y939D02*
X792Y939D01*
X816Y939D02*
X852Y939D01*
X757Y938D02*
X791Y938D01*
X818Y938D02*
X852Y938D01*
X757Y937D02*
X790Y937D01*
X818Y937D02*
X852Y937D01*
X757Y936D02*
X789Y936D01*
X819Y936D02*
X852Y936D01*
X757Y935D02*
X789Y935D01*
X820Y935D02*
X852Y935D01*
X757Y934D02*
X788Y934D01*
X821Y934D02*
X852Y934D01*
X757Y933D02*
X788Y933D01*
X821Y933D02*
X852Y933D01*
X757Y932D02*
X787Y932D01*
X822Y932D02*
X852Y932D01*
X757Y931D02*
X787Y931D01*
X822Y931D02*
X852Y931D01*
X757Y930D02*
X786Y930D01*
X822Y930D02*
X852Y930D01*
X757Y929D02*
X786Y929D01*
X823Y929D02*
X852Y929D01*
X757Y928D02*
X786Y928D01*
X823Y928D02*
X852Y928D01*
X757Y927D02*
X786Y927D01*
X823Y927D02*
X852Y927D01*
X757Y926D02*
X786Y926D01*
X823Y926D02*
X852Y926D01*
X757Y925D02*
X786Y925D01*
X823Y925D02*
X852Y925D01*
X757Y924D02*
X786Y924D01*
X823Y924D02*
X852Y924D01*
X757Y923D02*
X786Y923D01*
X823Y923D02*
X852Y923D01*
X757Y922D02*
X786Y922D01*
X823Y922D02*
X852Y922D01*
X757Y921D02*
X786Y921D01*
X823Y921D02*
X852Y921D01*
X757Y920D02*
X786Y920D01*
X822Y920D02*
X852Y920D01*
X757Y919D02*
X787Y919D01*
X822Y919D02*
X852Y919D01*
X757Y918D02*
X787Y918D01*
X822Y918D02*
X852Y918D01*
X757Y917D02*
X787Y917D01*
X821Y917D02*
X852Y917D01*
X757Y916D02*
X788Y916D01*
X821Y916D02*
X852Y916D01*
X757Y915D02*
X789Y915D01*
X820Y915D02*
X852Y915D01*
X757Y914D02*
X789Y914D01*
X819Y914D02*
X852Y914D01*
X757Y913D02*
X790Y913D01*
X819Y913D02*
X852Y913D01*
X757Y912D02*
X791Y912D01*
X818Y912D02*
X852Y912D01*
X757Y911D02*
X792Y911D01*
X817Y911D02*
X852Y911D01*
X757Y910D02*
X793Y910D01*
X815Y910D02*
X852Y910D01*
X757Y909D02*
X795Y909D01*
X814Y909D02*
X852Y909D01*
X757Y908D02*
X797Y908D01*
X812Y908D02*
X852Y908D01*
X757Y907D02*
X800Y907D01*
X808Y907D02*
X852Y907D01*
X757Y906D02*
X852Y906D01*
X757Y905D02*
X852Y905D01*
X757Y904D02*
X852Y904D01*
X757Y903D02*
X852Y903D01*
X757Y902D02*
X852Y902D01*
X757Y901D02*
X852Y901D01*
X757Y900D02*
X852Y900D01*
X757Y899D02*
X852Y899D01*
X757Y898D02*
X852Y898D01*
X757Y897D02*
X852Y897D01*
X757Y896D02*
X852Y896D01*
X757Y895D02*
X852Y895D01*
X757Y894D02*
X852Y894D01*
X757Y893D02*
X852Y893D01*
X757Y892D02*
X852Y892D01*
X757Y891D02*
X852Y891D01*
X757Y890D02*
X852Y890D01*
X757Y889D02*
X852Y889D01*
X757Y888D02*
X852Y888D01*
X757Y887D02*
X852Y887D01*
X757Y886D02*
X852Y886D01*
X757Y885D02*
X852Y885D01*
X757Y884D02*
X852Y884D01*
X757Y883D02*
X852Y883D01*
X757Y882D02*
X852Y882D01*
X757Y881D02*
X852Y881D01*
X757Y880D02*
X852Y880D01*
X757Y879D02*
X852Y879D01*
X757Y878D02*
X852Y878D01*
X757Y877D02*
X852Y877D01*
D02*
G04 End of Mask1*
M02*