; NON-PLATED HOLES START AT T1
; THROUGH (PLATED) HOLES START AT T100
M48
INCH
T1C0.165354
T100C0.040000
T101C0.047233
T102C0.015748
T103C0.039370
%
T1
X003169Y032590
X003169Y006764
T100
X013960Y006244
X012960Y017869
X013960Y025869
X012960Y011869
X013960Y028869
X012960Y012869
X012960Y023869
X013960Y013869
X012960Y030869
X012960Y025869
X012960Y007244
X013960Y021869
X013960Y024869
X012960Y005244
X012960Y020869
X013960Y022869
X013960Y014869
X012960Y006244
X013960Y007244
X013960Y016869
X012960Y027869
X012960Y028869
X013960Y004244
X012960Y018869
X012960Y024869
X013960Y017869
X013960Y011869
X013960Y020869
X013960Y026869
X012960Y029869
X012960Y004244
X012960Y022869
X013960Y018869
X012960Y016869
X012960Y014869
X013960Y023869
X013960Y027869
X013960Y015869
X013960Y005244
X012960Y021869
X012960Y026869
X012960Y013869
X013960Y030869
X012960Y019869
X012960Y015869
X013960Y029869
X013960Y012869
X013960Y019869
T101
X005610Y021843
X006792Y028733
X006792Y012197
X008051Y025975
X006792Y011211
X005610Y027353
X005610Y022825
X008051Y023810
X005610Y018497
X006792Y022825
X005610Y020857
X008051Y010229
X008051Y030110
X006792Y027353
X008051Y012197
X006792Y021843
X005610Y017118
X005610Y030110
X006792Y013379
X008051Y009244
X008051Y028733
X008051Y018497
X006792Y020857
X008051Y017118
X006792Y017118
X008051Y020857
X006792Y018497
X006792Y010229
X006792Y009244
X008051Y024992
X008051Y021843
X006792Y023810
X008051Y022825
X005610Y010229
X008051Y015740
X006792Y015740
X005610Y015740
X005610Y009244
X008051Y011211
X008051Y014361
X006792Y024992
X006792Y025975
X005610Y011211
X005610Y028733
X006792Y030110
X008051Y013379
X006792Y014361
X008051Y027353
T102
X010610Y022854
X001960Y016244
X016335Y018869
X010610Y021854
T103
X013956Y036501
X013956Y035123
T00
M30
