G04 MADE WITH FRITZING*
G04 WWW.FRITZING.ORG*
G04 DOUBLE SIDED*
G04 HOLES PLATED*
G04 CONTOUR ON CENTER OF CONTOUR VECTOR*
%ASAXBY*%
%FSLAX23Y23*%
%MOIN*%
%OFA0B0*%
%SFA1.0B1.0*%
%ADD10C,0.074000*%
%ADD11R,0.090086X0.113708*%
%ADD12R,0.026000X0.080000*%
%ADD13R,0.086900X0.024000*%
%ADD14R,0.023622X0.086614*%
%ADD15R,0.055118X0.059055*%
%ADD16R,0.047244X0.078740*%
%ADD17R,0.080000X0.026000*%
%ADD18R,0.059055X0.055118*%
%ADD19R,0.001000X0.001000*%
%LNPASTEMASK1*%
G90*
G70*
G54D10*
X607Y2484D03*
X607Y2384D03*
X607Y2283D03*
G54D11*
X1763Y3347D03*
X1932Y3347D03*
G54D12*
X2019Y1417D03*
X2069Y1417D03*
X2119Y1417D03*
X2169Y1417D03*
X2219Y1417D03*
X2269Y1417D03*
X2319Y1417D03*
X2369Y1417D03*
X2369Y1659D03*
X2319Y1659D03*
X2269Y1659D03*
X2219Y1659D03*
X2169Y1659D03*
X2119Y1659D03*
X2069Y1659D03*
X2019Y1659D03*
G54D13*
X3269Y2122D03*
X3269Y2172D03*
X3269Y2222D03*
X3269Y2272D03*
X3004Y2272D03*
X3004Y2222D03*
X3004Y2172D03*
X3004Y2122D03*
X3269Y1734D03*
X3269Y1784D03*
X3269Y1834D03*
X3269Y1884D03*
X3004Y1884D03*
X3004Y1834D03*
X3004Y1784D03*
X3004Y1734D03*
G54D11*
X569Y1397D03*
X400Y1397D03*
X569Y1534D03*
X400Y1534D03*
X569Y1672D03*
X400Y1672D03*
X569Y1809D03*
X400Y1809D03*
G54D14*
X457Y2709D03*
X457Y2347D03*
X507Y2709D03*
X407Y2709D03*
X357Y2709D03*
X507Y2347D03*
X407Y2347D03*
X357Y2347D03*
G54D15*
X57Y1397D03*
X138Y1397D03*
X57Y1534D03*
X138Y1534D03*
X57Y1672D03*
X138Y1672D03*
X57Y1809D03*
X138Y1809D03*
X1575Y1784D03*
X1656Y1784D03*
X1575Y1884D03*
X1656Y1884D03*
X1575Y2072D03*
X1656Y2072D03*
X1575Y2172D03*
X1656Y2172D03*
X307Y1397D03*
X226Y1397D03*
X307Y1534D03*
X226Y1534D03*
X307Y1672D03*
X226Y1672D03*
X307Y1809D03*
X226Y1809D03*
X1388Y1784D03*
X1468Y1784D03*
X1388Y1884D03*
X1468Y1884D03*
X1388Y2072D03*
X1468Y2072D03*
X1388Y2172D03*
X1468Y2172D03*
G54D16*
X3269Y3559D03*
X3269Y3669D03*
G54D17*
X1907Y172D03*
X1907Y222D03*
X1907Y272D03*
X1907Y322D03*
X1907Y372D03*
X1907Y422D03*
X1907Y472D03*
X1907Y522D03*
X1665Y522D03*
X1665Y472D03*
X1665Y422D03*
X1665Y372D03*
X1665Y322D03*
X1665Y272D03*
X1665Y222D03*
X1665Y172D03*
G54D15*
X1589Y609D03*
X1669Y609D03*
X543Y1159D03*
X463Y1159D03*
X2282Y2922D03*
X2363Y2922D03*
G54D18*
X3269Y3316D03*
X3269Y3397D03*
X2707Y3565D03*
X2707Y3484D03*
G54D15*
X463Y1259D03*
X543Y1259D03*
X250Y1259D03*
X169Y1259D03*
G54D18*
X1344Y3291D03*
X1344Y3372D03*
X1244Y3578D03*
X1244Y3659D03*
X1344Y3578D03*
X1344Y3659D03*
X1244Y3291D03*
X1244Y3372D03*
X657Y3578D03*
X657Y3659D03*
X544Y3578D03*
X544Y3659D03*
X657Y3291D03*
X657Y3372D03*
X544Y3291D03*
X544Y3372D03*
G54D15*
X3525Y2247D03*
X3444Y2247D03*
X3525Y1972D03*
X3444Y1972D03*
X3525Y2059D03*
X3444Y2059D03*
X3525Y2159D03*
X3444Y2159D03*
X2657Y2284D03*
X2738Y2284D03*
X3525Y1372D03*
X3444Y1372D03*
X3525Y1459D03*
X3444Y1459D03*
X3525Y1559D03*
X3444Y1559D03*
X3525Y1647D03*
X3444Y1647D03*
G54D18*
X1107Y2603D03*
X1107Y2684D03*
X1444Y2603D03*
X1444Y2684D03*
X1782Y2603D03*
X1782Y2684D03*
X2119Y2603D03*
X2119Y2684D03*
X1107Y2877D03*
X1107Y2797D03*
X1444Y2877D03*
X1444Y2797D03*
X1782Y2877D03*
X1782Y2797D03*
X2119Y2877D03*
X2119Y2797D03*
G54D15*
X1757Y2072D03*
X1838Y2072D03*
X1838Y2172D03*
X1757Y2172D03*
X1713Y772D03*
X1632Y772D03*
X2363Y797D03*
X2282Y797D03*
X250Y1159D03*
X169Y1159D03*
X2994Y1659D03*
X3075Y1659D03*
G54D18*
X2769Y1334D03*
X2769Y1253D03*
X2082Y953D03*
X2082Y1034D03*
G54D15*
X1282Y1247D03*
X1201Y1247D03*
X2363Y2822D03*
X2282Y2822D03*
G54D18*
X1982Y953D03*
X1982Y1034D03*
G54D15*
X1713Y859D03*
X1632Y859D03*
G54D18*
X1782Y1034D03*
X1782Y953D03*
G54D15*
X3044Y1255D03*
X2964Y1255D03*
G54D18*
X2482Y1253D03*
X2482Y1334D03*
G54D15*
X3625Y972D03*
X3544Y972D03*
X3289Y534D03*
X3369Y534D03*
X3200Y534D03*
X3119Y534D03*
X3625Y547D03*
X3544Y547D03*
G54D18*
X3007Y559D03*
X3007Y478D03*
X2682Y728D03*
X2682Y809D03*
G54D15*
X2501Y797D03*
X2582Y797D03*
G54D18*
X2882Y953D03*
X2882Y1034D03*
X2807Y478D03*
X2807Y559D03*
X2907Y478D03*
X2907Y559D03*
G54D15*
X1357Y772D03*
X1438Y772D03*
G54D18*
X1882Y953D03*
X1882Y1034D03*
X2182Y953D03*
X2182Y1034D03*
X2982Y953D03*
X2982Y1034D03*
X2682Y953D03*
X2682Y1034D03*
X2582Y953D03*
X2582Y1034D03*
X2782Y953D03*
X2782Y1034D03*
X2482Y953D03*
X2482Y1034D03*
X2282Y953D03*
X2282Y1034D03*
X2382Y953D03*
X2382Y1034D03*
G54D15*
X1757Y1784D03*
X1838Y1784D03*
X1838Y1884D03*
X1757Y1884D03*
X2669Y1255D03*
X2589Y1255D03*
G54D18*
X2869Y1253D03*
X2869Y1334D03*
G54D19*
D02*
G04 End of PasteMask1*
M02*