G04 MADE WITH FRITZING*
G04 WWW.FRITZING.ORG*
G04 DOUBLE SIDED*
G04 HOLES PLATED*
G04 CONTOUR ON CENTER OF CONTOUR VECTOR*
%ASAXBY*%
%FSLAX23Y23*%
%MOIN*%
%OFA0B0*%
%SFA1.0B1.0*%
%ADD10C,0.074000*%
%ADD11R,0.059055X0.055118*%
%ADD12R,0.055118X0.059055*%
%ADD13R,0.086614X0.023622*%
%ADD14R,0.113708X0.090086*%
%ADD15R,0.090086X0.113708*%
%ADD16R,0.026000X0.080000*%
%ADD17R,0.086900X0.024000*%
%ADD18R,0.047244X0.078740*%
%ADD19R,0.080000X0.026000*%
%ADD20R,0.001000X0.001000*%
%LNPASTEMASK1*%
G90*
G70*
G54D10*
X607Y2484D03*
X607Y2384D03*
X607Y2283D03*
G54D11*
X2244Y3303D03*
X2244Y3384D03*
G54D12*
X2301Y3159D03*
X2382Y3159D03*
G54D13*
X482Y2584D03*
X120Y2584D03*
X482Y2534D03*
X482Y2634D03*
X482Y2684D03*
X120Y2534D03*
X120Y2634D03*
X120Y2684D03*
G54D14*
X3119Y3497D03*
X3119Y3327D03*
G54D15*
X1882Y3384D03*
X2051Y3384D03*
G54D16*
X2019Y1380D03*
X2069Y1380D03*
X2119Y1380D03*
X2169Y1380D03*
X2219Y1380D03*
X2269Y1380D03*
X2319Y1380D03*
X2369Y1380D03*
X2369Y1622D03*
X2319Y1622D03*
X2269Y1622D03*
X2219Y1622D03*
X2169Y1622D03*
X2119Y1622D03*
X2069Y1622D03*
X2019Y1622D03*
G54D17*
X3269Y2122D03*
X3269Y2172D03*
X3269Y2222D03*
X3269Y2272D03*
X3004Y2272D03*
X3004Y2222D03*
X3004Y2172D03*
X3004Y2122D03*
X3269Y1734D03*
X3269Y1784D03*
X3269Y1834D03*
X3269Y1884D03*
X3004Y1884D03*
X3004Y1834D03*
X3004Y1784D03*
X3004Y1734D03*
G54D15*
X569Y1397D03*
X400Y1397D03*
X569Y1534D03*
X400Y1534D03*
X569Y1672D03*
X400Y1672D03*
X569Y1809D03*
X400Y1809D03*
G54D12*
X57Y1397D03*
X138Y1397D03*
X57Y1534D03*
X138Y1534D03*
X57Y1672D03*
X138Y1672D03*
X57Y1809D03*
X138Y1809D03*
X1575Y1784D03*
X1656Y1784D03*
X1575Y1884D03*
X1656Y1884D03*
X1575Y2072D03*
X1656Y2072D03*
X1575Y2172D03*
X1656Y2172D03*
X307Y1397D03*
X226Y1397D03*
X307Y1534D03*
X226Y1534D03*
X307Y1672D03*
X226Y1672D03*
X307Y1809D03*
X226Y1809D03*
X1388Y1784D03*
X1468Y1784D03*
X1388Y1884D03*
X1468Y1884D03*
X1388Y2072D03*
X1468Y2072D03*
X1388Y2172D03*
X1468Y2172D03*
G54D18*
X3369Y3527D03*
X3369Y3638D03*
G54D19*
X2557Y197D03*
X2557Y247D03*
X2557Y297D03*
X2557Y347D03*
X2557Y397D03*
X2557Y447D03*
X2557Y497D03*
X2557Y547D03*
X2315Y547D03*
X2315Y497D03*
X2315Y447D03*
X2315Y397D03*
X2315Y347D03*
X2315Y297D03*
X2315Y247D03*
X2315Y197D03*
G54D12*
X2144Y547D03*
X2225Y547D03*
X582Y1172D03*
X501Y1172D03*
X369Y1059D03*
X289Y1059D03*
X2282Y2922D03*
X2363Y2922D03*
G54D11*
X3244Y3609D03*
X3244Y3528D03*
X2394Y3384D03*
X2394Y3303D03*
G54D12*
X369Y959D03*
X289Y959D03*
X582Y1259D03*
X501Y1259D03*
X250Y1259D03*
X169Y1259D03*
G54D11*
X1344Y3291D03*
X1344Y3372D03*
X1244Y3578D03*
X1244Y3659D03*
X1344Y3578D03*
X1344Y3659D03*
X1244Y3291D03*
X1244Y3372D03*
X657Y3578D03*
X657Y3659D03*
X544Y3578D03*
X544Y3659D03*
X657Y3291D03*
X657Y3372D03*
X544Y3291D03*
X544Y3372D03*
G54D12*
X3525Y2247D03*
X3444Y2247D03*
X3525Y1972D03*
X3444Y1972D03*
X3525Y2059D03*
X3444Y2059D03*
X3525Y2159D03*
X3444Y2159D03*
X2657Y2284D03*
X2738Y2284D03*
X3525Y1372D03*
X3444Y1372D03*
X3525Y1459D03*
X3444Y1459D03*
X3525Y1559D03*
X3444Y1559D03*
X3525Y1647D03*
X3444Y1647D03*
G54D11*
X1107Y2603D03*
X1107Y2684D03*
X1444Y2603D03*
X1444Y2684D03*
X1782Y2603D03*
X1782Y2684D03*
X2119Y2603D03*
X2119Y2684D03*
X1107Y2877D03*
X1107Y2797D03*
X1444Y2877D03*
X1444Y2797D03*
X1782Y2877D03*
X1782Y2797D03*
X2119Y2877D03*
X2119Y2797D03*
G54D12*
X1757Y2072D03*
X1838Y2072D03*
X1838Y2172D03*
X1757Y2172D03*
X1713Y772D03*
X1632Y772D03*
X2325Y797D03*
X2244Y797D03*
X250Y1159D03*
X169Y1159D03*
X2994Y1659D03*
X3075Y1659D03*
G54D11*
X2769Y1334D03*
X2769Y1253D03*
X2082Y953D03*
X2082Y1034D03*
G54D12*
X1282Y1284D03*
X1201Y1284D03*
X2363Y2822D03*
X2282Y2822D03*
G54D11*
X1982Y953D03*
X1982Y1034D03*
G54D12*
X1713Y859D03*
X1632Y859D03*
G54D11*
X1782Y1034D03*
X1782Y953D03*
G54D12*
X3044Y1255D03*
X2964Y1255D03*
G54D11*
X2482Y1253D03*
X2482Y1334D03*
G54D12*
X3625Y972D03*
X3544Y972D03*
X3289Y534D03*
X3369Y534D03*
X3200Y534D03*
X3119Y534D03*
X3625Y547D03*
X3544Y547D03*
G54D11*
X3007Y559D03*
X3007Y478D03*
X2682Y728D03*
X2682Y809D03*
G54D12*
X2501Y797D03*
X2582Y797D03*
G54D11*
X2882Y953D03*
X2882Y1034D03*
X2807Y478D03*
X2807Y559D03*
X2907Y478D03*
X2907Y559D03*
G54D12*
X1357Y772D03*
X1438Y772D03*
G54D11*
X1882Y953D03*
X1882Y1034D03*
X2182Y953D03*
X2182Y1034D03*
X2982Y953D03*
X2982Y1034D03*
X2682Y953D03*
X2682Y1034D03*
X2582Y953D03*
X2582Y1034D03*
X2782Y953D03*
X2782Y1034D03*
X2482Y953D03*
X2482Y1034D03*
X2282Y953D03*
X2282Y1034D03*
X2382Y953D03*
X2382Y1034D03*
G54D12*
X1757Y1784D03*
X1838Y1784D03*
X1838Y1884D03*
X1757Y1884D03*
X2669Y1255D03*
X2589Y1255D03*
G54D11*
X2869Y1253D03*
X2869Y1334D03*
G54D12*
X1919Y397D03*
X2000Y397D03*
G54D20*
D02*
G04 End of PasteMask1*
M02*