; NON-PLATED HOLES START AT T1
; THROUGH (PLATED) HOLES START AT T100
M48
INCH
T1C0.177165
T100C0.037694
T101C0.059055
T102C0.037750
T103C0.031496
T104C0.038000
T105C0.037722
T106C0.042000
T107C0.038194
T108C0.040000
T109C0.015748
T110C0.030000
T111C0.035000
%
T1
X001318Y029841
X001318Y020841
T100
X029443Y024716
X034443Y024716
X030443Y024716
T101
X037568Y033466
X037568Y035466
T102
X032443Y029716
X028443Y029716
X031443Y029716
X032443Y024716
X035443Y029716
X033443Y029716
X034443Y029716
X028443Y024716
T103
X034943Y032966
X034943Y035919
T104
X005568Y004466
X005568Y006466
X004568Y002466
X037443Y009716
X004568Y007466
X012973Y013966
X002568Y003466
X002568Y004466
X002568Y005466
X037443Y007716
X004568Y005466
X003568Y002466
X002568Y008466
X027193Y027216
X004568Y004466
X004568Y003466
X037443Y003466
X002568Y002466
X003568Y003466
X013973Y013966
X037443Y004466
X005568Y008466
X002568Y006466
X037443Y005466
X005568Y007466
X027193Y026216
X020568Y032341
X015068Y005091
X003568Y006466
X032193Y003466
X004568Y006466
X037443Y008716
X034693Y003466
X031193Y003466
X004568Y008466
X005568Y005466
X002568Y007466
X033693Y003466
X003568Y007466
X016068Y005091
X019568Y032341
X005568Y003466
X027193Y028216
X005568Y002466
X003568Y004466
X003568Y005466
X003568Y008466
T105
X035443Y024716
X033443Y024716
X029443Y029716
X031443Y024716
X030443Y029716
T106
X027693Y032966
X003693Y036534
X002693Y033659
X029193Y032966
X008693Y036534
X015943Y027966
X003693Y033659
X029193Y033966
X009193Y026966
X012568Y026966
X019318Y026966
X010693Y033659
X010693Y036534
X009193Y025966
X015943Y026966
X019568Y002966
X002693Y036534
X015943Y025966
X016588Y002966
X027693Y035946
X001693Y036534
X008693Y033659
X019318Y025966
X012568Y025966
X009693Y033659
X012568Y027966
X009193Y027966
X019318Y027966
X029193Y034966
X001693Y033659
X009693Y036534
T107
X037818Y022591
X025818Y011591
X020818Y011591
X037818Y029591
X018818Y030591
X037818Y023591
X036818Y016591
X015818Y011591
X021818Y011591
X037818Y024591
X012218Y030591
X037818Y017591
X036818Y026591
X024818Y011591
X037818Y021591
X024818Y030591
X036818Y018591
X036818Y021591
X029818Y030591
X016818Y011591
X036818Y025591
X036818Y024591
X020818Y030591
X030818Y011591
X032818Y030591
X026818Y030591
X037818Y030591
X008218Y030591
X032818Y011591
X030818Y030591
X036818Y017591
X009218Y030591
X036818Y030591
X037818Y013591
X037818Y025591
X033818Y030591
X028818Y011591
X011218Y030591
X016218Y030591
X036818Y022591
X010218Y030591
X034818Y011591
X036818Y027591
X037818Y026591
X037818Y016591
X033818Y011591
X023818Y011591
X023818Y030591
X026818Y011591
X011818Y011591
X014218Y030591
X036818Y029591
X037818Y014591
X031818Y011591
X013818Y011591
X036818Y019591
X029818Y011591
X017818Y030591
X014818Y011591
X036818Y015591
X027818Y030591
X017818Y011591
X013218Y030591
X028818Y030591
X019818Y011591
X037818Y018591
X036818Y013591
X012818Y011591
X031818Y030591
X010818Y011591
X036818Y014591
X037818Y015591
X037818Y028591
X022818Y030591
X015218Y030591
X037818Y027591
X037818Y019591
X019818Y030591
X035818Y011591
X037818Y020591
X036818Y023591
X007218Y030591
X036818Y020591
X021818Y030591
X022818Y011591
X036818Y028591
T108
X007818Y020091
X008818Y003091
X007818Y022091
X008818Y017091
X007818Y016091
X008818Y008091
X008818Y016091
X007818Y011091
X017068Y032841
X008818Y005091
X006071Y024835
X008818Y022091
X008818Y021091
X008818Y015091
X008818Y004091
X007818Y015091
X008818Y011091
X008818Y018091
X017068Y033841
X008818Y019091
X008818Y010091
X006071Y022834
X007818Y010091
X006071Y023835
X007818Y005091
X008818Y009091
X007818Y014091
X017068Y034841
X008818Y006091
X006071Y027835
X007818Y012091
X007818Y013091
X008818Y013091
X007818Y018091
X007818Y008091
X007818Y004091
X017068Y036841
X008818Y020091
X007818Y009091
X007818Y017091
X006071Y026835
X007818Y006091
X008818Y014091
X017068Y035841
X007818Y019091
X007818Y007091
X007818Y021091
X008818Y012091
X006071Y025835
X017068Y031841
X008818Y007091
X007818Y003091
T109
X000568Y037716
X000943Y005716
X003068Y019216
X017318Y023716
X034693Y012466
X032818Y015841
X000568Y022341
X015318Y007716
X021818Y003466
X029693Y019716
X032818Y014466
X023193Y015466
X017943Y008591
X018818Y011591
X012318Y018341
X030443Y036716
X015193Y020091
X000943Y031716
X020697Y003962
X020693Y015466
X027068Y005466
X022443Y007216
X013943Y023091
X020443Y007591
X018818Y015091
X033318Y019966
X030568Y007466
X026193Y003466
X008693Y029716
X031943Y026091
X033318Y010841
X023193Y012966
X035193Y012841
X037318Y011591
X000818Y011091
X021812Y008942
X020443Y002716
X023443Y025716
X032693Y032716
X017318Y014091
X033443Y023216
X007693Y032216
X018568Y003966
X020693Y024466
X026193Y004466
X010693Y003091
X022443Y031591
X005943Y010091
X011068Y018216
X027818Y011591
X011443Y007216
X026199Y002459
X023693Y015466
X036193Y008091
X027693Y003091
X013693Y034841
X023943Y003466
X028943Y025466
X005818Y029216
X028068Y006216
X011318Y012216
X007068Y028716
X021193Y003466
X008818Y023216
X026193Y013966
X022193Y012966
X014193Y035716
T110
X025568Y034966
X025568Y032966
T111
X033318Y009716
X032318Y009716
X032318Y006716
X034318Y006716
X031318Y009716
X034318Y009716
X031318Y006716
X033318Y006716
T00
M30
