; NON-PLATED HOLES START AT T1
; THROUGH (PLATED) HOLES START AT T100
M48
INCH
T1C0.177165
T100C0.035000
T101C0.037722
T102C0.042000
T103C0.015748
T104C0.059055
T105C0.038000
T106C0.030000
T107C0.038194
T108C0.037694
T109C0.031496
T110C0.040000
T111C0.037750
%
T1
X001318Y029841
X001318Y020841
T100
X032318Y006716
X034318Y009716
X034318Y006716
X031318Y009716
X033318Y009716
X033318Y006716
X032318Y009716
X031318Y006716
T101
X033443Y024716
X031443Y024716
X035443Y024716
X029443Y029716
X030443Y029716
T102
X001693Y036534
X010693Y033659
X001693Y033659
X012568Y027966
X027693Y032716
X029193Y033716
X019568Y002966
X012568Y026966
X019318Y027966
X029193Y034716
X012568Y025966
X008693Y033659
X019318Y026966
X009193Y027966
X015943Y027966
X009693Y036534
X027693Y035696
X008693Y036534
X015943Y026966
X009193Y025966
X009693Y033659
X029193Y032716
X015943Y025966
X003693Y036534
X016588Y002966
X002693Y036534
X002693Y033659
X003693Y033659
X010693Y036534
X009193Y026966
X019318Y025966
T103
X017318Y023841
X008818Y023216
X033318Y019966
X037318Y011591
X023693Y015466
X023943Y003466
X035193Y012841
X013943Y023216
X011818Y034841
X003318Y019091
X028943Y025466
X007068Y028716
X007693Y032216
X022443Y007216
X025943Y036716
X020697Y003962
X008693Y029716
X005818Y029216
X017943Y008591
X023193Y012966
X000943Y005716
X027068Y005466
X000818Y011091
X021812Y008942
X031943Y026091
X005943Y010091
X026193Y003466
X023193Y015466
X020443Y002716
X011443Y007216
X020693Y024466
X022193Y012966
X032818Y015841
X022318Y031591
X037443Y006466
X021818Y003466
X029693Y019716
X018443Y003966
X000568Y022341
X028068Y006216
X014193Y035716
X030443Y036716
X027818Y011591
X015193Y020091
X018818Y015091
X021193Y003466
X010693Y003091
X017318Y014091
X023443Y025716
X026199Y002459
X026193Y004466
X011318Y012216
X018818Y011591
X030568Y007466
X032818Y014466
X027693Y003091
X000943Y031716
X020443Y007591
X033443Y023216
X033318Y010966
X020693Y015466
X026193Y013966
X034693Y012466
X015318Y007716
X012318Y018341
X011068Y018216
T104
X037568Y033466
X037568Y035466
T105
X034693Y004216
X005568Y007466
X005568Y006466
X003568Y007466
X002568Y004466
X005568Y008466
X004568Y002466
X003568Y002466
X036318Y005466
X003568Y004466
X027193Y027216
X002568Y003466
X002568Y002466
X016068Y005091
X003568Y005466
X031193Y004216
X036318Y003466
X002568Y008466
X004568Y007466
X003568Y003466
X036318Y007466
X013973Y013966
X002568Y006466
X004568Y004466
X012973Y013966
X003568Y006466
X015068Y005091
X004568Y006466
X004568Y008466
X033693Y004216
X005568Y004466
X036318Y009466
X032193Y004216
X004568Y005466
X027193Y028216
X002568Y007466
X005568Y003466
X005568Y005466
X036318Y008466
X020568Y032341
X036318Y004466
X003568Y008466
X002568Y005466
X005568Y002466
X019568Y032341
X004568Y003466
X027193Y026216
T106
X024693Y034966
X024693Y032966
T107
X014818Y011591
X036818Y025591
X036818Y013591
X026818Y030591
X017818Y011591
X033818Y030591
X036818Y018591
X036818Y030591
X037818Y013591
X037818Y021591
X028818Y030591
X021818Y030591
X013218Y030591
X037818Y019591
X021818Y011591
X015818Y011591
X029818Y030591
X036818Y022591
X037818Y014591
X024818Y011591
X027818Y030591
X037818Y018591
X010818Y011591
X007218Y030591
X032818Y011591
X013818Y011591
X037818Y023591
X016818Y011591
X018818Y030591
X029818Y011591
X037818Y026591
X036818Y026591
X036818Y019591
X037818Y027591
X036818Y020591
X036818Y027591
X011818Y011591
X016218Y030591
X011218Y030591
X031818Y030591
X017818Y030591
X032818Y030591
X009218Y030591
X037818Y030591
X030818Y030591
X036818Y028591
X019818Y011591
X037818Y015591
X037818Y022591
X037818Y025591
X037818Y016591
X037818Y028591
X012818Y011591
X020818Y030591
X036818Y014591
X031818Y011591
X028818Y011591
X022818Y011591
X036818Y023591
X037818Y020591
X030818Y011591
X019818Y030591
X037818Y029591
X036818Y024591
X036818Y021591
X036818Y017591
X025818Y011591
X023818Y011591
X015218Y030591
X036818Y029591
X024818Y030591
X036818Y016591
X022818Y030591
X037818Y024591
X008218Y030591
X020818Y011591
X035818Y011591
X036818Y015591
X033818Y011591
X023818Y030591
X034818Y011591
X026818Y011591
X012218Y030591
X014218Y030591
X037818Y017591
X010218Y030591
T108
X029443Y024716
X034443Y024716
X030443Y024716
T109
X034943Y032966
X034943Y035919
T110
X008818Y008591
X008818Y019591
X017068Y031841
X007818Y004591
X007818Y018591
X007818Y020591
X007818Y017591
X008818Y009591
X008818Y016591
X006071Y022834
X017068Y036841
X007818Y008591
X008818Y005591
X008818Y018591
X008818Y017591
X017068Y035841
X007818Y003591
X007818Y021591
X006071Y025835
X008818Y021591
X007818Y006591
X007818Y007591
X008818Y003591
X008818Y006591
X008818Y012591
X007818Y014591
X008818Y015591
X007818Y005591
X007818Y013591
X017068Y033841
X008818Y014591
X008818Y020591
X008818Y010591
X006071Y027835
X006071Y024835
X008818Y007591
X007818Y016591
X008818Y011591
X008818Y013591
X006071Y023835
X007818Y010591
X007818Y019591
X007818Y022591
X007818Y012591
X007818Y015591
X006071Y026835
X007818Y009591
X017068Y034841
X008818Y004591
X007818Y011591
X008818Y022591
X017068Y032841
T111
X035443Y029716
X028443Y024716
X028443Y029716
X031443Y029716
X032443Y029716
X033443Y029716
X032443Y024716
X034443Y029716
T00
M30
